<svg id="Layer_1" data-name="Layer 1" xmlns="http://www.w3.org/2000/svg" viewBox="0 0 278.87 139.29"><defs><style>.cls-1{fill:#4c4f55;}.cls-2{fill:#00a3b4;}.cls-3{fill:#636569;}</style></defs><title>allenpress-logo_Registered</title><path class="cls-1" d="M132.73,63.84V43.33a1.71,1.71,0,0,1,3.42,0v18.8H155a1.71,1.71,0,0,1,0,3.42H134.44a1.51,1.51,0,0,1-1.71-1.71"/><path class="cls-1" d="M161.87,63.84V43.33a1.71,1.71,0,1,1,3.42,0v18.8h18.8a1.71,1.71,0,0,1,0,3.42H163.58a1.51,1.51,0,0,1-1.71-1.71"/><path class="cls-1" d="M223.56,47.64v16.2a1.71,1.71,0,0,1-3.42,0V43.33a1.51,1.51,0,0,1,1.71-1.71,2.32,2.32,0,0,1,.89.16l.58.49,17.33,17.28V43.33a1.71,1.71,0,1,1,3.41,0V63.84a1.51,1.51,0,0,1-1.7,1.71,2.19,2.19,0,0,1-.82-.14l-.62-.48Z"/><path class="cls-1" d="M208.09,97.13q3.42,0,3.42-3.42t-3.42-3.41H197.84q-6.84,0-6.84-6.84t6.84-6.84h15.38a1.71,1.71,0,1,1,0,3.42H197.84q-3.42,0-3.42,3.42t3.42,3.42h10.25q6.84,0,6.84,6.83t-6.84,6.84H192.71a1.71,1.71,0,0,1,0-3.42Z"/><path class="cls-1" d="M237.23,97.13q3.42,0,3.42-3.42t-3.42-3.41H227q-6.83,0-6.83-6.84T227,76.62h15.39a1.71,1.71,0,0,1,0,3.42H227q-3.41,0-3.41,3.42T227,86.88h10.26q6.84,0,6.83,6.83t-6.83,6.84H221.85a1.71,1.71,0,0,1,0-3.42Z"/><path class="cls-1" d="M103,65.47a2,2,0,0,1-.88-.21,1.69,1.69,0,0,1-.74-2.36l11.72-20.37a1.9,1.9,0,0,1,1.62-.91h0a1.88,1.88,0,0,1,1.62.9l9.41,16,0,.06,2.5,4.26a1.69,1.69,0,0,1-.72,2.36,1.9,1.9,0,0,1-2.51-.68l-2-3.39H112.42a1.74,1.74,0,1,1,0-3.48H121L114.75,47,104.64,64.56A1.88,1.88,0,0,1,103,65.47Z"/><path class="cls-1" d="M184.14,90.74H169.6a1.75,1.75,0,0,1,0-3.5h14.54a1.75,1.75,0,0,1,0,3.5Z"/><path class="cls-1" d="M184.16,97.37H165.45V80.28h18.71a1.71,1.71,0,1,0,0-3.42h-20.5A1.51,1.51,0,0,0,162,78.52h0V99.16h0a1.5,1.5,0,0,0,1.7,1.63h20.5a1.71,1.71,0,1,0,0-3.42Z"/><path class="cls-1" d="M156.06,97.54l-7.27-7.24h1c4.56,0,6.84-2.29,6.84-6.84s-2.28-6.84-6.84-6.84H134.44a1.51,1.51,0,0,0-1.71,1.71V98.84a1.71,1.71,0,1,0,3.42,0V80h13.67q3.42,0,3.42,3.42t-3.42,3.42h-9.58a1.71,1.71,0,0,0,0,3.42H144l9.68,9.65a1.7,1.7,0,1,0,2.41-2.41Z"/><path class="cls-1" d="M120.65,76.62H105.27a1.51,1.51,0,0,0-1.71,1.71V98.84a1.71,1.71,0,0,0,3.42,0V80h13.67q3.42,0,3.42,3.42t-3.42,3.42h-9.58a1.71,1.71,0,1,0,0,3.42h9.58c4.56,0,6.83-2.29,6.83-6.84S125.21,76.62,120.65,76.62Z"/><path class="cls-1" d="M213.19,55.5H198.66a1.75,1.75,0,0,1,0-3.5h14.53a1.75,1.75,0,0,1,0,3.5Z"/><path class="cls-1" d="M213.22,62.13H194.51V45h18.71a1.71,1.71,0,1,0,0-3.42H192.71a1.5,1.5,0,0,0-1.7,1.66h0s0,0,0,0,0,0,0,0V63.8s0,0,0,0,0,0,0,0v0h0a1.5,1.5,0,0,0,1.7,1.63h20.51a1.71,1.71,0,1,0,0-3.42Z"/><path class="cls-2" d="M50.08,75.51a1.9,1.9,0,0,1-.92-.23,2,2,0,0,1-.85-2.7c.23-.44.48-.87.73-1.3A26.85,26.85,0,0,1,65.6,58.89a27.16,27.16,0,0,1,9.88-.64A27.49,27.49,0,0,1,79,58.9a2,2,0,0,1-1,3.87,22.84,22.84,0,0,0-3-.55,23.25,23.25,0,0,0-8.43.55,22.87,22.87,0,0,0-14.1,10.55c-.22.37-.43.74-.62,1.12A2,2,0,0,1,50.08,75.51Z"/><path class="cls-2" d="M47.23,87.33a2,2,0,0,1-2-2,27.26,27.26,0,0,1,.92-7.25,2,2,0,0,1,3.87,1,22.52,22.52,0,0,0-.79,6.17,2,2,0,0,1-2,2Z"/><path class="cls-2" d="M51.19,102.6a2,2,0,0,1-1.84-1.21,64.43,64.43,0,0,1-3.27-9.65,2,2,0,1,1,3.87-1,61.76,61.76,0,0,0,3.07,9,2,2,0,0,1-1,2.63A2,2,0,0,1,51.19,102.6Z"/><path class="cls-2" d="M61.86,70.9a2,2,0,0,1-1.26-3.55c4.9-4,12.84-3.56,12.92-3.56a2,2,0,0,1-.24,4c-.07,0-6.55-.27-10.16,2.67A2,2,0,0,1,61.86,70.9Z"/><path class="cls-2" d="M59.35,104.49a2,2,0,0,1-1.75-1,57.88,57.88,0,0,1-5.46-13.81,20.65,20.65,0,0,1,3.75-17.89,2,2,0,1,1,3.16,2.46,16.66,16.66,0,0,0-3,14.44,54.23,54.23,0,0,0,5.09,12.86,2,2,0,0,1-1.75,3Z"/><path class="cls-2" d="M66.41,104.12a2,2,0,0,1-1.68-.92A51.4,51.4,0,0,1,58.2,88.1,14.51,14.51,0,1,1,86.32,81a24.44,24.44,0,0,0,1.53,4.26,2,2,0,0,1-3.61,1.71,27.1,27.1,0,0,1-1.79-5A10.51,10.51,0,0,0,72.27,74,10.52,10.52,0,0,0,62.08,87.12a47.24,47.24,0,0,0,6,13.92,2,2,0,0,1-.6,2.76A1.94,1.94,0,0,1,66.41,104.12Z"/><path class="cls-2" d="M82.46,94.39a2,2,0,0,1-1.66-.89,32.31,32.31,0,0,1-4.41-10,4.26,4.26,0,1,0-8.25,2.1,2,2,0,1,1-3.88,1,8.25,8.25,0,1,1,16-4.07,28.81,28.81,0,0,0,3.87,8.8,2,2,0,0,1-.56,2.77A2.05,2.05,0,0,1,82.46,94.39Z"/><path class="cls-2" d="M72.57,102.07a2,2,0,0,1-1.64-.86A44,44,0,0,1,66,92a2,2,0,0,1,3.73-1.46,40.15,40.15,0,0,0,4.48,8.41,2,2,0,0,1-.5,2.78A2,2,0,0,1,72.57,102.07Z"/><path class="cls-2" d="M78.27,99.31a2,2,0,0,1-1.61-.82A38.66,38.66,0,0,1,70.32,85a2,2,0,0,1,3.88-1,34.49,34.49,0,0,0,5.68,12.09,2,2,0,0,1-.42,2.8A2,2,0,0,1,78.27,99.31Z"/><path class="cls-2" d="M59.15,58.75a2,2,0,0,1-1.33-.51c-2.17-1.94-4.1-2.8-7.34-3.88a2,2,0,1,1,1.26-3.8,22.82,22.82,0,0,1,8.75,4.69,2,2,0,0,1-1.34,3.5Z"/><path class="cls-2" d="M53.76,62.44a2,2,0,0,1-1-.29,23.79,23.79,0,0,0-6.27-2.23,2,2,0,1,1,.43-4,27.15,27.15,0,0,1,7.92,2.8,2,2,0,0,1-1,3.7Z"/><path class="cls-2" d="M43,97.15a1.62,1.62,0,0,1-.31,0c-1-.15-1.28-.21-1.77-.31l-.35-.07a2,2,0,0,1,.78-3.93l.36.08c.44.09.73.14,1.6.28a2,2,0,0,1-.31,4Z"/><path class="cls-2" d="M48,67.14a2,2,0,0,1-.48-.06A37.33,37.33,0,0,1,43,65.62c-.54-.21-1.07-.41-1.58-.58a2,2,0,1,1,1.29-3.79l1.71.62a31.08,31.08,0,0,0,4,1.32,2,2,0,0,1-.46,4Z"/><path class="cls-2" d="M44.52,72.34a1.72,1.72,0,0,1-.39,0,29.58,29.58,0,0,1-5.34-1.56l-.59-.22a2,2,0,1,1,1.39-3.75l.6.22a25.44,25.44,0,0,0,4.72,1.39,2,2,0,0,1-.39,4Z"/><path class="cls-2" d="M42.49,91.08a1.87,1.87,0,0,1-.4,0c-1.69-.34-3.63-.79-5.07-1.19A2,2,0,0,1,38.09,86c1.35.38,3.18.81,4.78,1.13a2,2,0,0,1-.38,4Z"/><path class="cls-2" d="M43,78.4a1.82,1.82,0,0,1-.46-.06A56.62,56.62,0,0,1,35.07,76a2,2,0,0,1,1.47-3.72,53.46,53.46,0,0,0,6.92,2.15,2,2,0,0,1-.46,4Z"/><path class="cls-2" d="M41.71,84.62a2.28,2.28,0,0,1-.44-.05,50.49,50.49,0,0,1-5.69-1.7l-.43-.15a2,2,0,0,1,1.31-3.78l.43.15a47.62,47.62,0,0,0,5.26,1.58,2,2,0,0,1-.44,4Z"/><path class="cls-2" d="M61.22,39.12a2,2,0,0,1-1.52-.63,2,2,0,0,1-.43-2,1.85,1.85,0,0,1,1.48-1.34h.1c.37-.11.81-.2,1.36-.32A2,2,0,0,1,63,38.76l-1.26.29-.08,0A2,2,0,0,1,61.22,39.12Z"/><path class="cls-2" d="M61.2,52.69a2,2,0,0,1-1.4-3.43c2.13-2.09,6.49-2.84,9.58-2.84a2,2,0,0,1,0,4c-3.12,0-5.95.88-6.78,1.7A2,2,0,0,1,61.2,52.69Z"/><path class="cls-2" d="M65.18,57.16a2,2,0,0,1-1.07-3.69,12.15,12.15,0,0,1,9.66-1.18,2,2,0,0,1,1.43,2.44,2,2,0,0,1-2.44,1.43,8.26,8.26,0,0,0-6.52.69A2,2,0,0,1,65.18,57.16Z"/><path class="cls-2" d="M55.37,49.76a2,2,0,0,1-1.58-3.23c.19-.24,4.7-5.88,11.52-5.88h.09a2,2,0,0,1,0,4h-.08C60.46,44.65,57,49,56.94,49A2,2,0,0,1,55.37,49.76Z"/><path class="cls-2" d="M84.29,72.15A2,2,0,0,1,83,71.66,10.85,10.85,0,0,0,78.39,69a2,2,0,1,1,1.4-3.75,14.8,14.8,0,0,1,5.82,3.38,2,2,0,0,1,.19,2.82A2,2,0,0,1,84.29,72.15Z"/><path class="cls-1" d="M132.73,63.84V43.33a1.71,1.71,0,0,1,3.42,0v18.8H155a1.71,1.71,0,0,1,0,3.42H134.44a1.51,1.51,0,0,1-1.71-1.71"/><path class="cls-1" d="M161.87,63.84V43.33a1.71,1.71,0,1,1,3.42,0v18.8h18.8a1.71,1.71,0,0,1,0,3.42H163.58a1.51,1.51,0,0,1-1.71-1.71"/><path class="cls-1" d="M223.56,47.64v16.2a1.71,1.71,0,0,1-3.42,0V43.33a1.51,1.51,0,0,1,1.71-1.71,2.32,2.32,0,0,1,.89.16l.58.49,17.33,17.28V43.33a1.71,1.71,0,1,1,3.41,0V63.84a1.51,1.51,0,0,1-1.7,1.71,2.19,2.19,0,0,1-.82-.14l-.62-.48Z"/><path class="cls-1" d="M208.09,97.13q3.42,0,3.42-3.42t-3.42-3.41H197.84q-6.84,0-6.84-6.84t6.84-6.84h15.38a1.71,1.71,0,1,1,0,3.42H197.84q-3.42,0-3.42,3.42t3.42,3.42h10.25q6.84,0,6.84,6.83t-6.84,6.84H192.71a1.71,1.71,0,0,1,0-3.42Z"/><path class="cls-1" d="M237.23,97.13q3.42,0,3.42-3.42t-3.42-3.41H227q-6.83,0-6.83-6.84T227,76.62h15.39a1.71,1.71,0,0,1,0,3.42H227q-3.41,0-3.41,3.42T227,86.88h10.26q6.84,0,6.83,6.83t-6.83,6.84H221.85a1.71,1.71,0,0,1,0-3.42Z"/><path class="cls-1" d="M103,65.47a2,2,0,0,1-.88-.21,1.69,1.69,0,0,1-.74-2.36l11.72-20.37a1.9,1.9,0,0,1,1.62-.91h0a1.88,1.88,0,0,1,1.62.9l9.41,16,0,.06,2.5,4.26a1.69,1.69,0,0,1-.72,2.36,1.9,1.9,0,0,1-2.51-.68l-2-3.39H112.42a1.74,1.74,0,1,1,0-3.48H121L114.75,47,104.64,64.56A1.88,1.88,0,0,1,103,65.47Z"/><path class="cls-1" d="M184.14,90.74H169.6a1.75,1.75,0,0,1,0-3.5h14.54a1.75,1.75,0,0,1,0,3.5Z"/><path class="cls-1" d="M184.16,97.37H165.45V80.28h18.71a1.71,1.71,0,1,0,0-3.42h-20.5A1.51,1.51,0,0,0,162,78.52h0V99.16h0a1.5,1.5,0,0,0,1.7,1.63h20.5a1.71,1.71,0,1,0,0-3.42Z"/><path class="cls-1" d="M156.06,97.54l-7.27-7.24h1c4.56,0,6.84-2.29,6.84-6.84s-2.28-6.84-6.84-6.84H134.44a1.51,1.51,0,0,0-1.71,1.71V98.84a1.71,1.71,0,1,0,3.42,0V80h13.67q3.42,0,3.42,3.42t-3.42,3.42h-9.58a1.71,1.71,0,0,0,0,3.42H144l9.68,9.65a1.7,1.7,0,1,0,2.41-2.41Z"/><path class="cls-1" d="M120.65,76.62H105.27a1.51,1.51,0,0,0-1.71,1.71V98.84a1.71,1.71,0,0,0,3.42,0V80h13.67q3.42,0,3.42,3.42t-3.42,3.42h-9.58a1.71,1.71,0,1,0,0,3.42h9.58c4.56,0,6.83-2.29,6.83-6.84S125.21,76.62,120.65,76.62Z"/><path class="cls-1" d="M213.19,55.5H198.66a1.75,1.75,0,0,1,0-3.5h14.53a1.75,1.75,0,0,1,0,3.5Z"/><path class="cls-1" d="M213.22,62.13H194.51V45h18.71a1.71,1.71,0,1,0,0-3.42H192.71a1.5,1.5,0,0,0-1.7,1.66h0s0,0,0,0,0,0,0,0V63.8s0,0,0,0,0,0,0,0v0h0a1.5,1.5,0,0,0,1.7,1.63h20.51a1.71,1.71,0,1,0,0-3.42Z"/><path class="cls-2" d="M50.08,75.51a1.9,1.9,0,0,1-.92-.23,2,2,0,0,1-.85-2.7c.23-.44.48-.87.73-1.3A26.85,26.85,0,0,1,65.6,58.89a27.16,27.16,0,0,1,9.88-.64A27.49,27.49,0,0,1,79,58.9a2,2,0,0,1-1,3.87,22.84,22.84,0,0,0-3-.55,23.25,23.25,0,0,0-8.43.55,22.87,22.87,0,0,0-14.1,10.55c-.22.37-.43.74-.62,1.12A2,2,0,0,1,50.08,75.51Z"/><path class="cls-2" d="M47.23,87.33a2,2,0,0,1-2-2,27.26,27.26,0,0,1,.92-7.25,2,2,0,0,1,3.87,1,22.52,22.52,0,0,0-.79,6.17,2,2,0,0,1-2,2Z"/><path class="cls-2" d="M51.19,102.6a2,2,0,0,1-1.84-1.21,64.43,64.43,0,0,1-3.27-9.65,2,2,0,1,1,3.87-1,61.76,61.76,0,0,0,3.07,9,2,2,0,0,1-1,2.63A2,2,0,0,1,51.19,102.6Z"/><path class="cls-2" d="M61.86,70.9a2,2,0,0,1-1.26-3.55c4.9-4,12.84-3.56,12.92-3.56a2,2,0,0,1-.24,4c-.07,0-6.55-.27-10.16,2.67A2,2,0,0,1,61.86,70.9Z"/><path class="cls-2" d="M59.35,104.49a2,2,0,0,1-1.75-1,57.88,57.88,0,0,1-5.46-13.81,20.65,20.65,0,0,1,3.75-17.89,2,2,0,1,1,3.16,2.46,16.66,16.66,0,0,0-3,14.44,54.23,54.23,0,0,0,5.09,12.86,2,2,0,0,1-1.75,3Z"/><path class="cls-2" d="M66.41,104.12a2,2,0,0,1-1.68-.92A51.4,51.4,0,0,1,58.2,88.1,14.51,14.51,0,1,1,86.32,81a24.44,24.44,0,0,0,1.53,4.26,2,2,0,0,1-3.61,1.71,27.1,27.1,0,0,1-1.79-5A10.51,10.51,0,0,0,72.27,74,10.52,10.52,0,0,0,62.08,87.12a47.24,47.24,0,0,0,6,13.92,2,2,0,0,1-.6,2.76A1.94,1.94,0,0,1,66.41,104.12Z"/><path class="cls-2" d="M82.46,94.39a2,2,0,0,1-1.66-.89,32.31,32.31,0,0,1-4.41-10,4.26,4.26,0,1,0-8.25,2.1,2,2,0,1,1-3.88,1,8.25,8.25,0,1,1,16-4.07,28.81,28.81,0,0,0,3.87,8.8,2,2,0,0,1-.56,2.77A2.05,2.05,0,0,1,82.46,94.39Z"/><path class="cls-2" d="M72.57,102.07a2,2,0,0,1-1.64-.86A44,44,0,0,1,66,92a2,2,0,0,1,3.73-1.46,40.15,40.15,0,0,0,4.48,8.41,2,2,0,0,1-.5,2.78A2,2,0,0,1,72.57,102.07Z"/><path class="cls-2" d="M78.27,99.31a2,2,0,0,1-1.61-.82A38.66,38.66,0,0,1,70.32,85a2,2,0,0,1,3.88-1,34.49,34.49,0,0,0,5.68,12.09,2,2,0,0,1-.42,2.8A2,2,0,0,1,78.27,99.31Z"/><path class="cls-2" d="M59.15,58.75a2,2,0,0,1-1.33-.51c-2.17-1.94-4.1-2.8-7.34-3.88a2,2,0,1,1,1.26-3.8,22.82,22.82,0,0,1,8.75,4.69,2,2,0,0,1-1.34,3.5Z"/><path class="cls-2" d="M53.76,62.44a2,2,0,0,1-1-.29,23.79,23.79,0,0,0-6.27-2.23,2,2,0,1,1,.43-4,27.15,27.15,0,0,1,7.92,2.8,2,2,0,0,1-1,3.7Z"/><path class="cls-2" d="M43,97.15a1.62,1.62,0,0,1-.31,0c-1-.15-1.28-.21-1.77-.31l-.35-.07a2,2,0,0,1,.78-3.93l.36.08c.44.09.73.14,1.6.28a2,2,0,0,1-.31,4Z"/><path class="cls-2" d="M48,67.14a2,2,0,0,1-.48-.06A37.33,37.33,0,0,1,43,65.62c-.54-.21-1.07-.41-1.58-.58a2,2,0,1,1,1.29-3.79l1.71.62a31.08,31.08,0,0,0,4,1.32,2,2,0,0,1-.46,4Z"/><path class="cls-2" d="M44.52,72.34a1.72,1.72,0,0,1-.39,0,29.58,29.58,0,0,1-5.34-1.56l-.59-.22a2,2,0,1,1,1.39-3.75l.6.22a25.44,25.44,0,0,0,4.72,1.39,2,2,0,0,1-.39,4Z"/><path class="cls-2" d="M42.49,91.08a1.87,1.87,0,0,1-.4,0c-1.69-.34-3.63-.79-5.07-1.19A2,2,0,0,1,38.09,86c1.35.38,3.18.81,4.78,1.13a2,2,0,0,1-.38,4Z"/><path class="cls-2" d="M43,78.4a1.82,1.82,0,0,1-.46-.06A56.62,56.62,0,0,1,35.07,76a2,2,0,0,1,1.47-3.72,53.46,53.46,0,0,0,6.92,2.15,2,2,0,0,1-.46,4Z"/><path class="cls-2" d="M41.71,84.62a2.28,2.28,0,0,1-.44-.05,50.49,50.49,0,0,1-5.69-1.7l-.43-.15a2,2,0,0,1,1.31-3.78l.43.15a47.62,47.62,0,0,0,5.26,1.58,2,2,0,0,1-.44,4Z"/><path class="cls-2" d="M61.22,39.12a2,2,0,0,1-1.52-.63,2,2,0,0,1-.43-2,1.85,1.85,0,0,1,1.48-1.34h.1c.37-.11.81-.2,1.36-.32A2,2,0,0,1,63,38.76l-1.26.29-.08,0A2,2,0,0,1,61.22,39.12Z"/><path class="cls-2" d="M61.2,52.69a2,2,0,0,1-1.4-3.43c2.13-2.09,6.49-2.84,9.58-2.84a2,2,0,0,1,0,4c-3.12,0-5.95.88-6.78,1.7A2,2,0,0,1,61.2,52.69Z"/><path class="cls-2" d="M65.18,57.16a2,2,0,0,1-1.07-3.69,12.15,12.15,0,0,1,9.66-1.18,2,2,0,0,1,1.43,2.44,2,2,0,0,1-2.44,1.43,8.26,8.26,0,0,0-6.52.69A2,2,0,0,1,65.18,57.16Z"/><path class="cls-2" d="M55.37,49.76a2,2,0,0,1-1.58-3.23c.19-.24,4.7-5.88,11.52-5.88h.09a2,2,0,0,1,0,4h-.08C60.46,44.65,57,49,56.94,49A2,2,0,0,1,55.37,49.76Z"/><path class="cls-2" d="M84.29,72.15A2,2,0,0,1,83,71.66,10.85,10.85,0,0,0,78.39,69a2,2,0,1,1,1.4-3.75,14.8,14.8,0,0,1,5.82,3.38,2,2,0,0,1,.19,2.82A2,2,0,0,1,84.29,72.15Z"/><path class="cls-3" d="M248.25,100.93a2.38,2.38,0,0,1-.88-.17,2.2,2.2,0,0,1-.71-.49,2.39,2.39,0,0,1-.49-.74,2.65,2.65,0,0,1,0-1.92,2.44,2.44,0,0,1,.49-.75,2.17,2.17,0,0,1,.71-.48,2.2,2.2,0,0,1,.88-.18,2.16,2.16,0,0,1,.88.18,2.11,2.11,0,0,1,.72.48,2.27,2.27,0,0,1,.49.75,2.65,2.65,0,0,1,0,1.92,2.22,2.22,0,0,1-.49.74,2.14,2.14,0,0,1-.72.49A2.34,2.34,0,0,1,248.25,100.93Zm0-.44a1.82,1.82,0,0,0,.7-.14,1.61,1.61,0,0,0,.57-.39,1.8,1.8,0,0,0,.38-.61,2.13,2.13,0,0,0,.14-.78,2.21,2.21,0,0,0-.14-.78,1.91,1.91,0,0,0-.38-.61,1.78,1.78,0,0,0-.57-.4,1.85,1.85,0,0,0-1.41,0,1.85,1.85,0,0,0-.56.4,2.07,2.07,0,0,0-.37.61,2.21,2.21,0,0,0-.14.78,2.13,2.13,0,0,0,.14.78,2,2,0,0,0,.37.61,1.67,1.67,0,0,0,.56.39A1.83,1.83,0,0,0,248.25,100.49Zm-.86-3.17h.91a1.3,1.3,0,0,1,.66.17.67.67,0,0,1,.27.61.72.72,0,0,1-.12.4.59.59,0,0,1-.32.26l.55,1h-.55l-.42-.84h-.49v.84h-.49Zm.8,1.21c.34,0,.52-.13.52-.41a.38.38,0,0,0-.11-.28.51.51,0,0,0-.39-.11h-.33v.8Z"/><path class="cls-3" d="M132.73,63.84V43.33a1.71,1.71,0,0,1,3.42,0v18.8H155a1.71,1.71,0,0,1,0,3.42H134.44a1.51,1.51,0,0,1-1.71-1.71"/><path class="cls-3" d="M161.87,63.84V43.33a1.71,1.71,0,1,1,3.42,0v18.8h18.8a1.71,1.71,0,0,1,0,3.42H163.58a1.51,1.51,0,0,1-1.71-1.71"/><path class="cls-3" d="M223.56,47.64v16.2a1.71,1.71,0,0,1-3.42,0V43.33a1.51,1.51,0,0,1,1.71-1.71,2.32,2.32,0,0,1,.89.16l.58.49,17.33,17.28V43.33a1.71,1.71,0,1,1,3.41,0V63.84a1.51,1.51,0,0,1-1.7,1.71,2.19,2.19,0,0,1-.82-.14l-.62-.48Z"/><path class="cls-3" d="M208.09,97.13q3.42,0,3.42-3.42t-3.42-3.41H197.84q-6.84,0-6.84-6.84t6.84-6.84h15.38a1.71,1.71,0,1,1,0,3.42H197.84q-3.42,0-3.42,3.42t3.42,3.42h10.25q6.84,0,6.84,6.83t-6.84,6.84H192.71a1.71,1.71,0,0,1,0-3.42Z"/><path class="cls-3" d="M237.23,97.13q3.42,0,3.42-3.42t-3.42-3.41H227q-6.83,0-6.83-6.84T227,76.62h15.39a1.71,1.71,0,0,1,0,3.42H227q-3.41,0-3.41,3.42T227,86.88h10.26q6.84,0,6.83,6.83t-6.83,6.84H221.85a1.71,1.71,0,0,1,0-3.42Z"/><path class="cls-3" d="M103,65.47a2,2,0,0,1-.88-.21,1.69,1.69,0,0,1-.74-2.36l11.72-20.37a1.9,1.9,0,0,1,1.62-.91h0a1.88,1.88,0,0,1,1.62.9l9.41,16,0,.06,2.5,4.26a1.69,1.69,0,0,1-.72,2.36,1.9,1.9,0,0,1-2.51-.68l-2-3.39H112.42a1.74,1.74,0,1,1,0-3.48H121L114.75,47,104.64,64.56A1.88,1.88,0,0,1,103,65.47Z"/><path class="cls-3" d="M184.14,90.74H169.6a1.75,1.75,0,0,1,0-3.5h14.54a1.75,1.75,0,0,1,0,3.5Z"/><path class="cls-3" d="M184.16,97.37H165.45V80.28h18.71a1.71,1.71,0,1,0,0-3.42h-20.5A1.51,1.51,0,0,0,162,78.52h0V99.16h0a1.5,1.5,0,0,0,1.7,1.63h20.5a1.71,1.71,0,1,0,0-3.42Z"/><path class="cls-3" d="M156.06,97.54l-7.27-7.24h1c4.56,0,6.84-2.29,6.84-6.84s-2.28-6.84-6.84-6.84H134.44a1.51,1.51,0,0,0-1.71,1.71V98.84a1.71,1.71,0,1,0,3.42,0V80h13.67q3.42,0,3.42,3.42t-3.42,3.42h-9.58a1.71,1.71,0,0,0,0,3.42H144l9.68,9.65a1.7,1.7,0,1,0,2.41-2.41Z"/><path class="cls-3" d="M120.65,76.62H105.27a1.51,1.51,0,0,0-1.71,1.71V98.84a1.71,1.71,0,0,0,3.42,0V80h13.67q3.42,0,3.42,3.42t-3.42,3.42h-9.58a1.71,1.71,0,1,0,0,3.42h9.58c4.56,0,6.83-2.29,6.83-6.84S125.21,76.62,120.65,76.62Z"/><path class="cls-3" d="M213.19,55.5H198.66a1.75,1.75,0,0,1,0-3.5h14.53a1.75,1.75,0,0,1,0,3.5Z"/><path class="cls-3" d="M213.22,62.13H194.51V45h18.71a1.71,1.71,0,1,0,0-3.42H192.71a1.5,1.5,0,0,0-1.7,1.66h0s0,0,0,0,0,0,0,0V63.8s0,0,0,0,0,0,0,0v0h0a1.5,1.5,0,0,0,1.7,1.63h20.51a1.71,1.71,0,1,0,0-3.42Z"/></svg>