<?xml version="1.0" encoding="utf-8"?>
<!-- Generator: Adobe Illustrator 19.1.0, SVG Export Plug-In . SVG Version: 6.00 Build 0)  -->
<svg version="1.1" id="Layer_1" xmlns="http://www.w3.org/2000/svg" xmlns:xlink="http://www.w3.org/1999/xlink" x="0px" y="0px"
	 viewBox="0 26.6 300 69.4" style="enable-background:new 0 26.6 300 69.4;" xml:space="preserve">
<style type="text/css">
	.st0{fill:#FFFFFF;}
</style>
<g>
	<path class="st0" d="M146.7,44c-0.9-1.1-2.4-2-4.5-2.9l-3.3-1.3c-1.2-0.5-2-0.9-2.4-1.4c-0.4-0.5-0.6-1-0.6-1.8
		c0-0.9,0.3-1.6,1.1-1.9c0.7-0.3,1.8-0.5,3.3-0.5c1.4,0,3.6,0.1,6.7,0.4v-3.4c-2-0.5-4.2-0.8-6.9-0.8c-2.9,0-5,0.5-6.4,1.5
		c-1.4,1-2.1,2.6-2.1,4.8c0,1.7,0.5,3.1,1.4,4.2c0.9,1.1,2.3,2,4.1,2.8l3.6,1.5c1.2,0.5,2,1,2.4,1.5c0.4,0.5,0.6,1.1,0.6,1.9
		c0,1.1-0.3,1.8-1,2.3c-0.7,0.5-1.8,0.7-3.3,0.7c-2.2,0-4.5-0.1-7.1-0.4v3.5c1.8,0.5,4.3,0.7,7.5,0.7c2.7,0,4.7-0.6,6.2-1.8
		c1.5-1.2,2.2-2.9,2.2-4.9C148,46.5,147.6,45.1,146.7,44 M128.2,51h-10.7v-6.7h10v-3.6h-10v-6h10.7V31h-15.1v23.7h15.1V51z
		 M109.6,51c-2.4,0.2-4.2,0.3-5.7,0.3c-2.1,0-3.6-0.5-4.5-1.5c-0.9-1-1.4-2.8-1.4-5.4v-3.2c0-2.7,0.5-4.4,1.4-5.4
		c0.9-1,2.5-1.5,4.5-1.5c1.5,0,3.4,0.1,5.7,0.3v-3.5c-1.8-0.4-3.8-0.6-5.9-0.6c-1.6,0-3,0.2-4.2,0.5c-1.2,0.3-2.2,0.9-3.2,1.7
		c-0.9,0.8-1.6,1.9-2.1,3.4s-0.7,3.2-0.7,5.2v3.2c0,2.1,0.2,3.9,0.7,5.2c0.5,1.5,1.2,2.6,2.1,3.4s2,1.4,3.2,1.7
		c1.2,0.3,2.6,0.5,4.2,0.5c2.3,0,4.2-0.2,5.9-0.6V51z M89.4,31H85v23.7h4.4V31z"/>
	<path class="st0" d="M154,68.9h-4.8l-4.8,9.2c-0.5,0.9-1,1.9-1.5,3.1h-0.1c-0.5-1.2-1-2.2-1.5-3l-4.7-9.3h-4.8v23.7h4.3V79.4
		c0-0.7,0-2.1-0.1-4.1h0.1c0.2,0.3,0.4,0.9,0.8,1.6c0.4,0.8,0.6,1.3,0.8,1.7l3.5,6.7h3.6l3.6-6.7c0.9-1.7,1.4-2.8,1.6-3.3h0.1
		c-0.1,1.7-0.2,3.1-0.2,4.1v13.2h4.3L154,68.9 M127.6,88.9h-10.7v-6.7h10v-3.6h-10v-6h10.7v-3.7h-15.1v23.7h15.1V88.9z M107.4,68.9
		H103v23.7h4.4V68.9z M99.4,88.9c-2.4,0.2-4.2,0.3-5.7,0.3c-2.1,0-3.6-0.5-4.5-1.5s-1.4-2.8-1.4-5.4v-3.2c0-2.7,0.5-4.4,1.4-5.4
		s2.5-1.5,4.5-1.5c1.5,0,3.4,0.1,5.7,0.3v-3.6c-1.8-0.4-3.8-0.6-5.9-0.6c-1.6,0-3.1,0.2-4.2,0.5c-1.2,0.3-2.2,0.9-3.2,1.7
		c-0.9,0.8-1.6,1.9-2.1,3.4c-0.5,1.5-0.7,3.2-0.7,5.2v3.2c0,2.1,0.2,3.9,0.7,5.2c0.5,1.5,1.2,2.6,2.1,3.4c0.9,0.8,2,1.4,3.2,1.7
		c1.2,0.3,2.6,0.5,4.2,0.5c2.3,0,4.2-0.2,5.9-0.6V88.9z"/>
	<g>
		<rect x="84.5" y="61.8" class="st0" width="212.7" height="0.6"/>
	</g>
	<path class="st0" d="M35.1,70.1c0,0-23.2,1.4-19.2,20.2C21.5,94,28.3,96,35.5,96c11.9,0,22.3-5.7,28.9-14.4
		C32.6,92.5,35.1,70.1,35.1,70.1"/>
	<path class="st0" d="M35.6,26.6C16,26.6,0,42.1,0,61.3c0,6.6,2,12.8,5.2,18.2c3.2-0.5,6.6-1.8,10.3-4.3C26.1,68.1,35.4,70,35.4,70
		s-2.2,20.1,32.5,5.6c2.1-4.3,3.2-9.2,3.2-14.3C71.1,42.1,55.1,26.6,35.6,26.6z M12,49.3l-0.1,1.1L11,49.9l-1,0.5v-1.1l-1-0.6l1-0.6
		V47l1,0.5l0.9-0.5l0.1,1.1l0.9,0.6L12,49.3z M20.3,49.6h-1.1l-0.6,1l-0.6-1h-1.1l0.5-1l-0.5-1H18l0.6-0.9l0.6,0.9l1.1,0.1l-0.5,1
		L20.3,49.6z M26.1,53H25l-0.6,0.9l-0.6-1h-1.1l0.5-1l-0.5-1h1.1l0.6-0.9l0.6,1h1.1l-0.5,1L26.1,53z M31.7,64h-1.1L30,64.8l-0.5-0.9
		l-1.1-0.1l0.5-0.9l-0.5-1h1.1l0.6-1l0.6,1h1.1l-0.6,1L31.7,64z M30.6,56.1l-0.5,1l-0.6-1h-1.1l0.5-1l-0.6-0.9l1.1-0.1l0.6-1l0.6,1
		h1.1l-0.5,1l0.6,0.9L30.6,56.1z M38,66l-0.1,1.1L37,66.4l-1,0.4l0.2-1.1L35.3,65l1-0.4l0.2-1.1l0.9,0.6l1-0.4l-0.1,1.1l0.9,0.8
		L38,66z M43.1,57.9L43,59l-0.9-0.5l-1,0.5v-1.1l-1-0.6l1-0.6v-1.1l1,0.5l0.9-0.5l0.1,1.1l0.9,0.6L43.1,57.9z M53.6,38.9V40l-1-0.5
		l-1,0.5v-1.1l-0.9-0.6l0.9-0.5v-1.2l1,0.6l1-0.6v1.2l1,0.5L53.6,38.9z"/>
	<g>
		<path class="st0" d="M168,40.6h-0.7c-0.1,0-0.2-0.1-0.2-0.2V32c0-0.1,0.1-0.2,0.2-0.2h0.7c0.1,0,0.2,0.1,0.2,0.2v8.3
			C168.2,40.4,168.2,40.6,168,40.6z"/>
		<path class="st0" d="M174.7,40.6h-0.6c-0.1,0-0.2-0.1-0.2-0.2v-4c0-1.2-0.4-1.6-1.3-1.6c-0.5,0-1.1,0.2-1.6,0.5v5
			c0,0.1-0.1,0.2-0.2,0.2h-0.6c-0.1,0-0.2-0.1-0.2-0.2v-6c0-0.1,0.1-0.2,0.2-0.2h0.6c0.1,0,0.2,0.1,0.2,0.2v0.2
			c0.7-0.4,1.2-0.5,1.9-0.5c1.4,0,2.1,0.9,2.1,2.5v3.9C174.9,40.4,174.8,40.6,174.7,40.6z"/>
		<path class="st0" d="M179.6,40.6c-0.2,0-0.5,0.1-0.8,0.1c-1.1,0-1.6-0.3-1.6-1.6v-4.2l-1.2-0.1c-0.1,0-0.2-0.1-0.2-0.2v-0.4
			c0-0.1,0.1-0.2,0.2-0.2h1.2v-1.1c0-0.1,0.1-0.2,0.2-0.2l0.6-0.1l0,0c0.1,0,0.2,0.1,0.2,0.2v1.3h1.3c0.1,0,0.2,0.1,0.2,0.2v0.4
			c0,0.1-0.1,0.2-0.2,0.2h-1.3V39c0,0.7,0.2,0.7,0.6,0.7h0.7c0.2,0,0.2,0,0.2,0.2v0.4C179.8,40.5,179.8,40.6,179.6,40.6z"/>
		<path class="st0" d="M185.6,37.6h-4v0.2c0,1.4,0.6,1.9,1.6,1.9c0.7,0,1.6,0,2.1-0.1c0,0,0,0,0.1,0s0.2,0,0.2,0.2v0.4
			c0,0.2,0,0.2-0.2,0.3c-0.7,0.1-1.3,0.2-2.1,0.2c-1.4,0-2.7-0.6-2.7-2.8v-1.1c0-1.7,0.9-2.8,2.6-2.8c1.7,0,2.6,1.1,2.6,2.8v0.6
			C185.8,37.5,185.7,37.6,185.6,37.6z M184.7,36.7c0-1.3-0.5-1.9-1.6-1.9c-1,0-1.6,0.6-1.6,1.9v0.1L184.7,36.7L184.7,36.7
			L184.7,36.7z"/>
		<path class="st0" d="M189.7,34.8c-0.5,0-1,0.1-1.6,0.5v5c0,0.1-0.1,0.2-0.2,0.2h-0.6c-0.1,0-0.2-0.1-0.2-0.2v-6
			c0-0.1,0.1-0.2,0.2-0.2h0.6c0.1,0,0.2,0.1,0.2,0.2v0.2c0.6-0.4,1.1-0.6,1.7-0.6c0.2,0,0.2,0.1,0.2,0.2v0.5
			C190,34.8,189.9,34.8,189.7,34.8z"/>
		<path class="st0" d="M195.8,40.6h-0.6c-0.1,0-0.2-0.1-0.2-0.2v-4c0-1.2-0.4-1.6-1.3-1.6c-0.5,0-1.1,0.2-1.6,0.5v5
			c0,0.1-0.1,0.2-0.2,0.2h-0.6c-0.1,0-0.2-0.1-0.2-0.2v-6c0-0.1,0.1-0.2,0.2-0.2h0.6c0.1,0,0.2,0.1,0.2,0.2v0.2
			c0.7-0.4,1.2-0.5,1.9-0.5c1.4,0,2.1,0.9,2.1,2.5v3.9C196.1,40.4,196,40.6,195.8,40.6z"/>
		<path class="st0" d="M201.8,40.6h-0.5c-0.1,0-0.2-0.1-0.2-0.2v-0.3c-0.6,0.3-1.2,0.6-1.8,0.6c-1,0-1.9-0.4-1.9-1.9v-0.2
			c0-1.3,0.7-1.9,2.9-1.9h0.9v-0.5c0-1-0.3-1.3-1.3-1.3c-0.8,0-1.3,0-1.8,0.1c0,0,0,0-0.1,0s-0.2,0-0.2-0.2v-0.5
			c0-0.1,0.1-0.2,0.2-0.2c0.5-0.1,1-0.2,1.8-0.2c1.6,0,2.3,0.8,2.3,2.2v4.1C202.1,40.4,202,40.6,201.8,40.6z M201,37.4h-0.9
			c-1.4,0-1.8,0.3-1.8,1.2v0.1c0,0.9,0.4,1.1,1.1,1.1c0.5,0,1-0.2,1.6-0.5L201,37.4L201,37.4z"/>
		<path class="st0" d="M206.8,40.6c-0.2,0-0.5,0.1-0.8,0.1c-1.1,0-1.6-0.3-1.6-1.6v-4.2l-1.2-0.1c-0.1,0-0.2-0.1-0.2-0.2v-0.4
			c0-0.1,0.1-0.2,0.2-0.2h1.2v-1.1c0-0.1,0.1-0.2,0.2-0.2l0.6-0.1l0,0c0.1,0,0.2,0.1,0.2,0.2v1.3h1.3c0.1,0,0.2,0.1,0.2,0.2v0.4
			c0,0.1-0.1,0.2-0.2,0.2h-1.3V39c0,0.7,0.2,0.7,0.6,0.7h0.7c0.2,0,0.2,0,0.2,0.2v0.4C207,40.5,206.9,40.6,206.8,40.6z"/>
		<path class="st0" d="M209,33h-0.6c-0.1,0-0.2-0.1-0.2-0.2v-1c0-0.1,0.1-0.2,0.2-0.2h0.6c0.1,0,0.2,0.1,0.2,0.2v0.9
			C209.2,32.9,209.1,33,209,33z M208.9,40.6h-0.6c-0.1,0-0.2-0.1-0.2-0.2v-6c0-0.1,0.1-0.2,0.2-0.2h0.6c0.1,0,0.2,0.1,0.2,0.2v6
			C209.2,40.4,209.1,40.6,208.9,40.6z"/>
		<path class="st0" d="M213.2,40.6c-1.7,0-2.6-1.1-2.6-2.9v-0.9c0-1.7,0.9-2.9,2.6-2.9c1.7,0,2.6,1.2,2.6,2.9v0.9
			C215.8,39.5,214.9,40.6,213.2,40.6z M214.8,36.8c0-1.2-0.5-2-1.6-2s-1.6,0.8-1.6,2v0.9c0,1.2,0.5,2,1.6,2s1.6-0.8,1.6-2V36.8z"/>
		<path class="st0" d="M221.9,40.6h-0.6c-0.1,0-0.2-0.1-0.2-0.2v-4c0-1.2-0.4-1.6-1.3-1.6c-0.5,0-1.1,0.2-1.6,0.5v5
			c0,0.1-0.1,0.2-0.2,0.2h-0.6c-0.1,0-0.2-0.1-0.2-0.2v-6c0-0.1,0.1-0.2,0.2-0.2h0.6c0.1,0,0.2,0.1,0.2,0.2v0.2
			c0.7-0.4,1.2-0.5,1.9-0.5c1.4,0,2.1,0.9,2.1,2.5v3.9C222.1,40.4,222,40.6,221.9,40.6z"/>
		<path class="st0" d="M227.9,40.6h-0.5c-0.1,0-0.2-0.1-0.2-0.2v-0.3c-0.6,0.3-1.2,0.6-1.8,0.6c-1,0-1.9-0.4-1.9-1.9v-0.2
			c0-1.3,0.7-1.9,2.9-1.9h0.9v-0.5c0-1-0.3-1.3-1.3-1.3c-0.8,0-1.3,0-1.8,0.1c0,0,0,0-0.1,0s-0.2,0-0.2-0.2v-0.5
			c0-0.1,0.1-0.2,0.2-0.2c0.5-0.1,1-0.2,1.8-0.2c1.6,0,2.3,0.8,2.3,2.2v4.1C228.1,40.4,228,40.6,227.9,40.6z M227.1,37.4h-0.9
			c-1.4,0-1.8,0.3-1.8,1.2v0.1c0,0.9,0.4,1.1,1.1,1.1c0.5,0,1-0.2,1.6-0.5L227.1,37.4L227.1,37.4z"/>
		<path class="st0" d="M230.6,40.6h-0.7c-0.1,0-0.2-0.1-0.2-0.2v-8.5c0-0.1,0.1-0.2,0.2-0.2h0.6c0.1,0,0.2,0.1,0.2,0.2v8.4
			C230.8,40.4,230.7,40.6,230.6,40.6z"/>
		<path class="st0" d="M240.3,40.5c-0.5,0.1-1,0.2-2,0.2c-1.5,0-3.1-0.8-3.1-3.7v-1.7c0-2.9,1.7-3.7,3.1-3.7c0.7,0,1.5,0.1,2,0.2
			c0.1,0,0.2,0,0.2,0.2v0.6c0,0.1,0,0.1-0.1,0.1l0,0c-0.4,0-1.3-0.1-2-0.1c-1.2,0-2.1,0.7-2.1,2.7v1.6c0,2,0.9,2.7,2.1,2.7
			c0.7,0,1.5-0.1,2-0.1l0,0c0.1,0,0.2,0.1,0.2,0.2v0.5C240.6,40.4,240.4,40.5,240.3,40.5z"/>
		<path class="st0" d="M244.1,40.6c-1.7,0-2.6-1.1-2.6-2.9v-0.9c0-1.7,0.9-2.9,2.6-2.9s2.6,1.2,2.6,2.9v0.9
			C246.7,39.5,245.8,40.6,244.1,40.6z M245.7,36.8c0-1.2-0.5-2-1.6-2s-1.6,0.8-1.6,2v0.9c0,1.2,0.5,2,1.6,2s1.6-0.8,1.6-2V36.8z"/>
		<path class="st0" d="M252.8,40.6h-0.6c-0.1,0-0.2-0.1-0.2-0.2v-0.2c-0.7,0.4-1.2,0.5-1.9,0.5c-1.4,0-2.1-0.9-2.1-2.5v-3.9
			c0-0.1,0.1-0.2,0.2-0.2h0.6c0.1,0,0.2,0.1,0.2,0.2v3.9c0,1.2,0.4,1.6,1.3,1.6c0.5,0,1.1-0.2,1.6-0.5v-5c0-0.1,0.1-0.2,0.2-0.2h0.6
			c0.1,0,0.2,0.1,0.2,0.2v6C253,40.4,252.9,40.6,252.8,40.6z"/>
		<path class="st0" d="M259.3,40.6h-0.6c-0.1,0-0.2-0.1-0.2-0.2v-4c0-1.2-0.4-1.6-1.3-1.6c-0.5,0-1.1,0.2-1.6,0.5v5
			c0,0.1-0.1,0.2-0.2,0.2h-0.6c-0.1,0-0.2-0.1-0.2-0.2v-6c0-0.1,0.1-0.2,0.2-0.2h0.6c0.1,0,0.2,0.1,0.2,0.2v0.2
			c0.7-0.4,1.2-0.5,1.9-0.5c1.4,0,2.1,0.9,2.1,2.5v3.9C259.6,40.4,259.4,40.6,259.3,40.6z"/>
		<path class="st0" d="M264.9,40.5c-0.4,0.1-0.9,0.1-1.5,0.1c-1.6,0-2.5-1.1-2.5-2.9v-0.9c0-1.7,0.9-2.9,2.5-2.9
			c0.5,0,1.1,0.1,1.5,0.1c0.2,0,0.2,0.1,0.2,0.3v0.4c0,0.1-0.1,0.2-0.2,0.2l0,0c-0.5-0.1-0.9-0.1-1.5-0.1c-0.9,0-1.5,0.6-1.5,2v0.9
			c0,1.3,0.5,2,1.5,2c0.6,0,0.9,0,1.5-0.1l0,0c0.1,0,0.2,0.1,0.2,0.2v0.4C265.1,40.4,265.1,40.5,264.9,40.5z"/>
		<path class="st0" d="M267.2,33h-0.6c-0.1,0-0.2-0.1-0.2-0.2v-1c0-0.1,0.1-0.2,0.2-0.2h0.6c0.1,0,0.2,0.1,0.2,0.2v0.9
			C267.4,32.9,267.3,33,267.2,33z M267.2,40.6h-0.6c-0.1,0-0.2-0.1-0.2-0.2v-6c0-0.1,0.1-0.2,0.2-0.2h0.6c0.1,0,0.2,0.1,0.2,0.2v6
			C267.4,40.4,267.3,40.6,267.2,40.6z"/>
		<path class="st0" d="M269.9,40.6h-0.6c-0.1,0-0.2-0.1-0.2-0.2v-8.5c0-0.1,0.1-0.2,0.2-0.2h0.6c0.1,0,0.2,0.1,0.2,0.2v8.4
			C270.1,40.4,270,40.6,269.9,40.6z"/>
		<path class="st0" d="M277.9,32.4h-0.6c-0.6,0-0.7,0.2-0.7,0.8v0.9h1.2c0.1,0,0.2,0.1,0.2,0.2v0.5c0,0.1-0.1,0.2-0.2,0.2h-1.2v5.4
			c0,0.1-0.1,0.2-0.2,0.2h-0.6c-0.1,0-0.2-0.1-0.2-0.2v-5.5l-1.2-0.1c-0.1,0-0.2-0.1-0.2-0.2v-0.4c0-0.1,0.1-0.2,0.2-0.2h1.2v-0.8
			c0-1.3,0.6-1.6,1.7-1.6c0.3,0,0.5,0,0.7,0.1c0.1,0,0.2,0.1,0.2,0.2v0.4C278.1,32.3,278,32.4,277.9,32.4z"/>
		<path class="st0" d="M281.4,40.6c-1.7,0-2.6-1.1-2.6-2.9v-0.9c0-1.7,0.9-2.9,2.6-2.9s2.6,1.2,2.6,2.9v0.9
			C284.1,39.5,283.2,40.6,281.4,40.6z M283,36.8c0-1.2-0.5-2-1.6-2s-1.6,0.8-1.6,2v0.9c0,1.2,0.5,2,1.6,2s1.6-0.8,1.6-2V36.8z"/>
		<path class="st0" d="M288.1,34.8c-0.5,0-1,0.1-1.6,0.5v5c0,0.1-0.1,0.2-0.2,0.2h-0.6c-0.1,0-0.2-0.1-0.2-0.2v-6
			c0-0.1,0.1-0.2,0.2-0.2h0.6c0.1,0,0.2,0.1,0.2,0.2v0.2c0.6-0.4,1.1-0.6,1.7-0.6c0.2,0,0.2,0.1,0.2,0.2v0.5
			C288.3,34.8,288.2,34.8,288.1,34.8z"/>
		<path class="st0" d="M170.2,54.4c-0.2,0-0.5,0.1-0.8,0.1c-1.1,0-1.6-0.3-1.6-1.6v-4.1l-1.2-0.1c-0.1,0-0.2-0.1-0.2-0.2v-0.3
			c0-0.1,0.1-0.2,0.2-0.2h1.2v-1.2c0-0.1,0.1-0.2,0.2-0.2l0.6-0.1l0,0c0.1,0,0.2,0.1,0.2,0.2V48h1.3c0.1,0,0.2,0.1,0.2,0.2v0.4
			c0,0.1-0.1,0.2-0.2,0.2h-1.3v4.1c0,0.7,0.2,0.7,0.6,0.7h0.7c0.2,0,0.2,0,0.2,0.2v0.4C170.4,54.3,170.3,54.4,170.2,54.4z"/>
		<path class="st0" d="M176.2,54.4h-0.6c-0.1,0-0.2-0.1-0.2-0.2v-3.9c0-1.2-0.5-1.6-1.3-1.6c-0.4,0-1.1,0.1-1.6,0.3v5.1
			c0,0.1-0.1,0.2-0.2,0.2h-0.6c-0.1,0-0.2-0.1-0.2-0.2v-8.4c0-0.1,0.1-0.2,0.2-0.2h0.6c0.1,0,0.2,0.1,0.2,0.2v2.4
			c0.6-0.2,1.3-0.4,1.8-0.4c1.3,0,2.1,0.7,2.1,2.5v3.9C176.5,54.3,176.3,54.4,176.2,54.4z"/>
		<path class="st0" d="M182.8,51.5h-4v0.1c0,1.4,0.6,1.9,1.6,1.9c0.7,0,1.6,0,2.1-0.1c0,0,0,0,0.1,0s0.2,0,0.2,0.2V54
			c0,0.2,0,0.2-0.2,0.3c-0.7,0.1-1.3,0.2-2.1,0.2c-1.4,0-2.7-0.6-2.7-2.8v-1.1c0-1.7,0.9-2.8,2.6-2.8c1.7,0,2.6,1.1,2.6,2.8v0.6
			C183,51.4,182.9,51.5,182.8,51.5z M181.9,50.6c0-1.3-0.5-1.9-1.6-1.9c-1,0-1.6,0.6-1.6,1.9v0.1L181.9,50.6L181.9,50.6L181.9,50.6z
			"/>
		<path class="st0" d="M192.2,54.4c-0.5,0-1.6,0.1-2.3,0.1c-1.7,0-2.5-0.6-2.5-2.2v-4.6c0-1.6,0.9-2.2,2.5-2.2c0.7,0,1.8,0,2.3,0.1
			c0.1,0,0.1,0.1,0.1,0.2v0.6c0,0.1,0,0.1-0.1,0.1h-2.3c-1.3,0-1.5,0.3-1.5,1.2v1.6h3.6c0.1,0,0.2,0.1,0.2,0.2V50
			c0,0.1-0.1,0.2-0.2,0.2h-3.6v2c0,0.9,0.2,1.2,1.5,1.2h2.3c0.1,0,0.1,0.1,0.1,0.1v0.6C192.3,54.3,192.3,54.4,192.2,54.4z"/>
		<path class="st0" d="M198.9,54.4h-0.8c-0.1,0-0.1,0-0.2-0.1l-1.7-2.5l-1.7,2.5c-0.1,0.1-0.1,0.1-0.2,0.1h-0.7
			c-0.1,0-0.1,0-0.1-0.1c0,0,0-0.1,0.1-0.2l2.1-3l-2-2.9c0-0.1-0.1-0.1-0.1-0.2s0.1-0.1,0.2-0.1h0.8c0.1,0,0.2,0,0.2,0.2l1.5,2.2
			l1.5-2.2c0.1-0.2,0.1-0.2,0.2-0.2h0.7c0.1,0,0.2,0.1,0.2,0.1s0,0.1-0.1,0.2l-2,2.8l2.2,3.1v0.1C199.1,54.3,199,54.4,198.9,54.4z"
			/>
		<path class="st0" d="M202.6,54.5c-0.4,0-0.9,0-1.4-0.1v2.1c0,0.1-0.1,0.2-0.2,0.2h-0.6c-0.1,0-0.2-0.1-0.2-0.2v-8.2
			c0-0.2,0-0.2,0.2-0.3c0.6-0.2,1.5-0.3,2.2-0.3c1.8,0,2.6,1.2,2.6,2.9v1C205.2,53.4,204.4,54.5,202.6,54.5z M204.2,50.7
			c0-1.2-0.4-2.1-1.5-2.1c-0.5,0-1.1,0.1-1.4,0.1v4.7c0.4,0.1,1,0.1,1.4,0.1c1.2,0,1.5-0.8,1.5-2V50.7z"/>
		<path class="st0" d="M207.5,54.4h-0.6c-0.1,0-0.2-0.1-0.2-0.2v-8.4c0-0.1,0.1-0.2,0.2-0.2h0.6c0.1,0,0.2,0.1,0.2,0.2v8.4
			C207.7,54.3,207.6,54.4,207.5,54.4z"/>
		<path class="st0" d="M211.7,54.5c-1.7,0-2.6-1.1-2.6-2.9v-0.9c0-1.7,0.9-2.9,2.6-2.9c1.7,0,2.6,1.2,2.6,2.9v0.9
			C214.3,53.3,213.4,54.5,211.7,54.5z M213.3,50.7c0-1.2-0.5-2-1.6-2s-1.6,0.8-1.6,2v0.9c0,1.2,0.5,2,1.6,2s1.6-0.8,1.6-2V50.7z"/>
		<path class="st0" d="M218.3,48.7c-0.5,0-1,0.1-1.6,0.5v5c0,0.1-0.1,0.2-0.2,0.2h-0.6c-0.1,0-0.2-0.1-0.2-0.2v-6
			c0-0.1,0.1-0.2,0.2-0.2h0.6c0.1,0,0.2,0.1,0.2,0.2v0.2c0.6-0.4,1.1-0.6,1.7-0.6c0.2,0,0.2,0.1,0.2,0.2v0.5
			C218.6,48.6,218.5,48.7,218.3,48.7z"/>
		<path class="st0" d="M223.9,54.4h-0.5c-0.1,0-0.2-0.1-0.2-0.2v-0.3c-0.6,0.3-1.2,0.6-1.8,0.6c-1,0-1.9-0.4-1.9-1.9v-0.1
			c0-1.3,0.7-1.9,2.9-1.9h0.9v-0.5c0-1-0.3-1.3-1.3-1.3c-0.8,0-1.3,0-1.8,0.1c0,0,0,0-0.1,0c-0.1,0-0.2,0-0.2-0.2v-0.4
			c0-0.1,0.1-0.2,0.2-0.2c0.5-0.1,1-0.2,1.8-0.2c1.6,0,2.3,0.8,2.3,2.2v4.1C224.1,54.3,224,54.4,223.9,54.4z M223.1,51.2h-0.9
			c-1.4,0-1.8,0.3-1.8,1.2v0.1c0,0.9,0.4,1.1,1.1,1.1c0.5,0,1-0.2,1.6-0.5L223.1,51.2L223.1,51.2z"/>
		<path class="st0" d="M228.8,54.4c-0.2,0-0.5,0.1-0.8,0.1c-1.1,0-1.6-0.3-1.6-1.6v-4.1l-1.2-0.1c-0.1,0-0.2-0.1-0.2-0.2v-0.3
			c0-0.1,0.1-0.2,0.2-0.2h1.2v-1.2c0-0.1,0.1-0.2,0.2-0.2l0.6-0.1l0,0c0.1,0,0.2,0.1,0.2,0.2V48h1.3c0.1,0,0.2,0.1,0.2,0.2v0.4
			c0,0.1-0.1,0.2-0.2,0.2h-1.3v4.1c0,0.7,0.2,0.7,0.6,0.7h0.7c0.2,0,0.2,0,0.2,0.2v0.4C229,54.3,229,54.4,228.8,54.4z"/>
		<path class="st0" d="M231,46.8h-0.6c-0.1,0-0.2-0.1-0.2-0.2v-1c0-0.1,0.1-0.2,0.2-0.2h0.6c0.1,0,0.2,0.1,0.2,0.2v1
			C231.3,46.7,231.1,46.8,231,46.8z M231,54.4h-0.6c-0.1,0-0.2-0.1-0.2-0.2v-6c0-0.1,0.1-0.2,0.2-0.2h0.6c0.1,0,0.2,0.1,0.2,0.2v6
			C231.2,54.3,231.1,54.4,231,54.4z"/>
		<path class="st0" d="M235.2,54.5c-1.7,0-2.6-1.1-2.6-2.9v-0.9c0-1.7,0.9-2.9,2.6-2.9c1.7,0,2.6,1.2,2.6,2.9v0.9
			C237.9,53.3,237,54.5,235.2,54.5z M236.8,50.7c0-1.2-0.5-2-1.6-2s-1.6,0.8-1.6,2v0.9c0,1.2,0.5,2,1.6,2s1.6-0.8,1.6-2V50.7z"/>
		<path class="st0" d="M244,54.4h-0.6c-0.1,0-0.2-0.1-0.2-0.2v-3.9c0-1.2-0.4-1.6-1.3-1.6c-0.5,0-1.1,0.2-1.6,0.5v5
			c0,0.1-0.1,0.2-0.2,0.2h-0.6c-0.1,0-0.2-0.1-0.2-0.2v-6c0-0.1,0.1-0.2,0.2-0.2h0.6c0.1,0,0.2,0.1,0.2,0.2v0.2
			c0.7-0.4,1.2-0.5,1.9-0.5c1.4,0,2.1,0.9,2.1,2.5v3.9C244.2,54.3,244.1,54.4,244,54.4z"/>
		<path class="st0" d="M251,54.5c-1.7,0-2.6-1.1-2.6-2.9v-0.9c0-1.7,0.9-2.9,2.6-2.9c1.7,0,2.6,1.2,2.6,2.9v0.9
			C253.7,53.3,252.8,54.5,251,54.5z M252.6,50.7c0-1.2-0.5-2-1.6-2s-1.6,0.8-1.6,2v0.9c0,1.2,0.5,2,1.6,2s1.6-0.8,1.6-2V50.7z"/>
		<path class="st0" d="M258.1,46.2h-0.6c-0.6,0-0.7,0.2-0.7,0.8v0.9h1.2c0.1,0,0.2,0.1,0.2,0.2v0.5c0,0.1-0.1,0.2-0.2,0.2h-1.2v5.4
			c0,0.1-0.1,0.2-0.2,0.2H256c-0.1,0-0.2-0.1-0.2-0.2v-5.4l-1.2-0.1c-0.1,0-0.2-0.1-0.2-0.2v-0.3c0-0.1,0.1-0.2,0.2-0.2h1.2v-0.9
			c0-1.3,0.6-1.6,1.7-1.6c0.3,0,0.5,0,0.7,0.1c0.1,0,0.2,0.1,0.2,0.2v0.4C258.3,46.1,258.2,46.2,258.1,46.2z"/>
		<path class="st0" d="M265.5,54.4c-0.2,0-0.5,0.1-0.8,0.1c-1.1,0-1.6-0.3-1.6-1.6v-4.1l-1.2-0.2c-0.1,0-0.2-0.1-0.2-0.2v-0.3
			c0-0.1,0.1-0.2,0.2-0.2h1.2v-1.2c0-0.1,0.1-0.2,0.2-0.2l0.6-0.1l0,0c0.1,0,0.2,0.1,0.2,0.2v1.3h1.3c0.1,0,0.2,0.1,0.2,0.2v0.4
			c0,0.1-0.1,0.2-0.2,0.2h-1.3v4.1c0,0.7,0.2,0.7,0.6,0.7h0.7c0.2,0,0.2,0,0.2,0.2v0.4C265.7,54.3,265.6,54.4,265.5,54.4z"/>
		<path class="st0" d="M271.5,54.4h-0.6c-0.1,0-0.2-0.1-0.2-0.2v-3.9c0-1.2-0.5-1.6-1.3-1.6c-0.4,0-1.1,0.1-1.6,0.3v5.1
			c0,0.1-0.1,0.2-0.2,0.2H267c-0.1,0-0.2-0.1-0.2-0.2v-8.4c0-0.1,0.1-0.2,0.2-0.2h0.6c0.1,0,0.2,0.1,0.2,0.2v2.4
			c0.6-0.2,1.3-0.4,1.8-0.4c1.3,0,2.1,0.7,2.1,2.5v3.9C271.8,54.3,271.6,54.4,271.5,54.4z"/>
		<path class="st0" d="M278.1,51.5h-4v0.1c0,1.4,0.6,1.9,1.6,1.9c0.7,0,1.6,0,2.1-0.1c0,0,0,0,0.1,0s0.2,0,0.2,0.2V54
			c0,0.2,0,0.2-0.2,0.3c-0.7,0.1-1.3,0.2-2.1,0.2c-1.4,0-2.7-0.6-2.7-2.8v-1.1c0-1.7,0.9-2.8,2.6-2.8c1.7,0,2.6,1.1,2.6,2.8v0.6
			C278.3,51.4,278.2,51.5,278.1,51.5z M277.2,50.6c0-1.3-0.5-1.9-1.6-1.9c-1,0-1.6,0.6-1.6,1.9v0.1L277.2,50.6L277.2,50.6
			L277.2,50.6z"/>
		<path class="st0" d="M284.7,54.5c-0.8,0-1.4-0.1-2-0.2c-0.2,0-0.2-0.1-0.2-0.2v-0.5c0-0.1,0.1-0.2,0.2-0.2l0,0
			c0.5,0,1.4,0.1,2,0.1c1.4,0,1.8-0.6,1.8-1.4c0-0.6-0.3-0.9-1.4-1.6l-1.1-0.7c-1.1-0.7-1.6-1.3-1.6-2.2c0-1.4,1-2.1,2.8-2.1
			c0.7,0,1.6,0.1,2.1,0.1c0.1,0,0.2,0.1,0.2,0.2v0.5c0,0.1-0.1,0.2-0.2,0.2l0,0c-0.5,0-1.4-0.1-2-0.1c-1.2,0-1.7,0.3-1.7,1.1
			c0,0.6,0.4,0.9,1.3,1.4l1.1,0.7c1.4,0.8,1.9,1.5,1.9,2.4C287.7,53.2,287.1,54.5,284.7,54.5z"/>
		<path class="st0" d="M293.9,51.5h-4v0.1c0,1.4,0.6,1.9,1.6,1.9c0.7,0,1.6,0,2.1-0.1c0,0,0,0,0.1,0s0.2,0,0.2,0.2V54
			c0,0.2,0,0.2-0.2,0.3c-0.7,0.1-1.3,0.2-2.1,0.2c-1.4,0-2.7-0.6-2.7-2.8v-1.1c0-1.7,0.9-2.8,2.6-2.8c1.7,0,2.6,1.1,2.6,2.8v0.6
			C294.1,51.4,294,51.5,293.9,51.5z M293,50.6c0-1.3-0.5-1.9-1.6-1.9c-1,0-1.6,0.6-1.6,1.9v0.1L293,50.6L293,50.6L293,50.6z"/>
		<path class="st0" d="M299.7,54.4h-0.5c-0.1,0-0.2-0.1-0.2-0.2v-0.3c-0.6,0.3-1.2,0.6-1.8,0.6c-1,0-1.9-0.4-1.9-1.9v-0.1
			c0-1.3,0.7-1.9,2.9-1.9h0.9v-0.5c0-1-0.3-1.3-1.3-1.3c-0.8,0-1.3,0-1.8,0.1c0,0,0,0-0.1,0s-0.2,0-0.2-0.2v-0.4
			c0-0.1,0.1-0.2,0.2-0.2c0.5-0.1,1-0.2,1.8-0.2c1.6,0,2.3,0.8,2.3,2.2v4.1C299.9,54.3,299.8,54.4,299.7,54.4z M298.9,51.2H298
			c-1.4,0-1.8,0.3-1.8,1.2v0.1c0,0.9,0.4,1.1,1.1,1.1c0.5,0,1-0.2,1.6-0.5L298.9,51.2L298.9,51.2z"/>
	</g>
	<g>
		<path class="st0" d="M171.9,77.9c-0.5,0.1-1,0.2-2,0.2c-1.5,0-3.1-0.8-3.1-3.7v-1.6c0-2.9,1.7-3.7,3.1-3.7c0.7,0,1.5,0.1,2,0.2
			c0.1,0,0.2,0,0.2,0.2v0.6c0,0.1,0,0.1-0.1,0.1l0,0c-0.4,0-1.3-0.1-2-0.1c-1.2,0-2.1,0.7-2.1,2.7v1.6c0,2,0.9,2.7,2.1,2.7
			c0.7,0,1.5-0.1,2-0.1l0,0c0.1,0,0.2,0.1,0.2,0.2v0.5C172.2,77.8,172.1,77.9,171.9,77.9z"/>
		<path class="st0" d="M175.8,78c-1.7,0-2.6-1.1-2.6-2.9v-0.9c0-1.7,0.9-2.9,2.6-2.9c1.7,0,2.6,1.2,2.6,2.9v0.9
			C178.4,76.9,177.5,78,175.8,78z M177.4,74.3c0-1.2-0.5-2-1.6-2s-1.6,0.8-1.6,2v0.9c0,1.2,0.5,2,1.6,2s1.6-0.8,1.6-2V74.3z"/>
		<path class="st0" d="M184.6,78H184c-0.1,0-0.2-0.1-0.2-0.2v-3.9c0-1.2-0.4-1.6-1.3-1.6c-0.5,0-1.1,0.2-1.6,0.5v5
			c0,0.1-0.1,0.2-0.2,0.2h-0.6c-0.1,0-0.2-0.1-0.2-0.2v-6c0-0.1,0.1-0.2,0.2-0.2h0.6c0.1,0,0.2,0.1,0.2,0.2V72
			c0.7-0.4,1.2-0.5,1.9-0.5c1.4,0,2.1,0.9,2.1,2.5v3.9C184.8,77.9,184.7,78,184.6,78z"/>
		<path class="st0" d="M188.3,78c-0.4,0-1.3,0-1.9-0.2c-0.2,0-0.2-0.1-0.2-0.2v-0.4c0-0.1,0.1-0.2,0.2-0.2l0,0
			c0.6,0.1,1.4,0.1,1.9,0.1c0.8,0,1.2-0.2,1.2-0.8c0-0.4-0.2-0.6-0.9-1l-1.2-0.7c-0.7-0.4-1.2-0.9-1.2-1.7c0-1.2,0.9-1.6,2.1-1.6
			c0.7,0,1.3,0.1,1.8,0.2c0.2,0,0.2,0.1,0.2,0.2v0.4c0,0.1-0.1,0.2-0.2,0.2l0,0c-0.4,0-1.2-0.1-1.8-0.1s-1.1,0.1-1.1,0.7
			c0,0.4,0.3,0.6,0.8,0.9l1.2,0.7c1,0.6,1.3,1.1,1.3,1.8C190.5,77.5,189.6,78,188.3,78z"/>
		<path class="st0" d="M196.7,75h-4v0.2c0,1.4,0.6,1.9,1.6,1.9c0.7,0,1.6,0,2.1-0.1c0,0,0,0,0.1,0s0.2,0,0.2,0.2v0.4
			c0,0.2,0,0.2-0.2,0.3c-0.7,0.1-1.3,0.2-2.1,0.2c-1.4,0-2.7-0.6-2.7-2.8v-1.1c0-1.7,0.9-2.8,2.6-2.8c1.7,0,2.6,1.1,2.6,2.8v0.6
			C196.9,74.9,196.9,75,196.7,75z M195.9,74.1c0-1.3-0.5-1.9-1.6-1.9c-1,0-1.6,0.6-1.6,1.9v0.1L195.9,74.1L195.9,74.1L195.9,74.1z"
			/>
		<path class="st0" d="M199.2,70.4h-0.6c-0.1,0-0.2-0.1-0.2-0.2v-0.9c0-0.1,0.1-0.2,0.2-0.2h0.6c0.1,0,0.2,0.1,0.2,0.2v0.9
			C199.5,70.3,199.4,70.4,199.2,70.4z M199.2,78h-0.6c-0.1,0-0.2-0.1-0.2-0.2v-6c0-0.1,0.1-0.2,0.2-0.2h0.6c0.1,0,0.2,0.1,0.2,0.2v6
			C199.4,77.9,199.3,78,199.2,78z"/>
		<path class="st0" d="M202,78h-0.6c-0.1,0-0.2-0.1-0.2-0.2v-8.4c0-0.1,0.1-0.2,0.2-0.2h0.6c0.1,0,0.2,0.1,0.2,0.2v8.4
			C202.2,77.8,202.2,78,202,78z"/>
		<path class="st0" d="M208.1,78h-0.7c-0.1,0-0.2-0.1-0.2-0.2v-8.3c0-0.1,0.1-0.2,0.2-0.2h0.7c0.1,0,0.2,0.1,0.2,0.2v8.3
			C208.3,77.8,208.2,78,208.1,78z"/>
		<path class="st0" d="M214.8,78h-0.6c-0.1,0-0.2-0.1-0.2-0.2v-3.9c0-1.2-0.4-1.6-1.3-1.6c-0.5,0-1.1,0.2-1.6,0.5v5
			c0,0.1-0.1,0.2-0.2,0.2h-0.6c-0.1,0-0.2-0.1-0.2-0.2v-6c0-0.1,0.1-0.2,0.2-0.2h0.6c0.1,0,0.2,0.1,0.2,0.2V72
			c0.7-0.4,1.2-0.5,1.9-0.5c1.4,0,2.1,0.9,2.1,2.5v3.9C215.1,77.9,214.9,78,214.8,78z"/>
		<path class="st0" d="M219.8,78c-0.2,0-0.5,0.1-0.8,0.1c-1.1,0-1.6-0.3-1.6-1.6v-4.1l-1.2-0.1c-0.1,0-0.2-0.1-0.2-0.2v-0.3
			c0-0.1,0.1-0.2,0.2-0.2h1.2v-1.2c0-0.1,0.1-0.2,0.2-0.2l0.6-0.1l0,0c0.1,0,0.2,0.1,0.2,0.2v1.3h1.3c0.1,0,0.2,0.1,0.2,0.2v0.4
			c0,0.1-0.1,0.2-0.2,0.2h-1.3v4.1c0,0.7,0.2,0.7,0.6,0.7h0.7c0.2,0,0.2,0,0.2,0.2v0.4C220,77.9,220,78,219.8,78z"/>
		<path class="st0" d="M225.9,75h-4v0.2c0,1.4,0.6,1.9,1.6,1.9c0.7,0,1.6,0,2.1-0.1c0,0,0,0,0.1,0s0.2,0,0.2,0.2v0.4
			c0,0.2,0,0.2-0.2,0.3c-0.7,0.1-1.3,0.2-2.1,0.2c-1.4,0-2.7-0.6-2.7-2.8v-1.1c0-1.7,0.9-2.8,2.6-2.8c1.7,0,2.6,1.1,2.6,2.8v0.6
			C226.1,74.9,226,75,225.9,75z M225,74.1c0-1.3-0.5-1.9-1.6-1.9c-1,0-1.6,0.6-1.6,1.9v0.1L225,74.1L225,74.1L225,74.1z"/>
		<path class="st0" d="M230.2,72.3c-0.5,0-1,0.1-1.6,0.5v5c0,0.1-0.1,0.2-0.2,0.2h-0.6c-0.1,0-0.2-0.1-0.2-0.2v-6
			c0-0.1,0.1-0.2,0.2-0.2h0.6c0.1,0,0.2,0.1,0.2,0.2V72c0.6-0.4,1.1-0.6,1.7-0.6c0.2,0,0.2,0.1,0.2,0.2v0.5
			C230.4,72.2,230.3,72.3,230.2,72.3z"/>
		<path class="st0" d="M236.4,78h-0.6c-0.1,0-0.2-0.1-0.2-0.2v-3.9c0-1.2-0.4-1.6-1.3-1.6c-0.5,0-1.1,0.2-1.6,0.5v5
			c0,0.1-0.1,0.2-0.2,0.2h-0.6c-0.1,0-0.2-0.1-0.2-0.2v-6c0-0.1,0.1-0.2,0.2-0.2h0.6c0.1,0,0.2,0.1,0.2,0.2V72
			c0.7-0.4,1.2-0.5,1.9-0.5c1.4,0,2.1,0.9,2.1,2.5v3.9C236.6,77.9,236.5,78,236.4,78z"/>
		<path class="st0" d="M242.4,78h-0.5c-0.1,0-0.2-0.1-0.2-0.2v-0.3c-0.6,0.3-1.2,0.6-1.8,0.6c-1,0-1.9-0.4-1.9-1.9v-0.1
			c0-1.3,0.7-1.9,2.9-1.9h0.9v-0.6c0-1-0.3-1.3-1.3-1.3c-0.8,0-1.3,0-1.8,0.1c0,0,0,0-0.1,0c-0.1,0-0.2,0-0.2-0.2v-0.4
			c0-0.1,0.1-0.2,0.2-0.2c0.5-0.1,1-0.2,1.8-0.2c1.6,0,2.3,0.8,2.3,2.2v4.1C242.7,77.9,242.6,78,242.4,78z M241.6,74.8h-0.9
			c-1.4,0-1.8,0.3-1.8,1.2v0.1c0,0.9,0.4,1.1,1.1,1.1c0.5,0,1-0.2,1.6-0.5L241.6,74.8L241.6,74.8z"/>
		<path class="st0" d="M247.5,78c-0.2,0-0.5,0.1-0.8,0.1c-1.1,0-1.6-0.3-1.6-1.6v-4.1l-1.2-0.1c-0.1,0-0.2-0.1-0.2-0.2v-0.3
			c0-0.1,0.1-0.2,0.2-0.2h1.2v-1.2c0-0.1,0.1-0.2,0.2-0.2l0.6-0.1l0,0c0.1,0,0.2,0.1,0.2,0.2v1.3h1.3c0.1,0,0.2,0.1,0.2,0.2v0.4
			c0,0.1-0.1,0.2-0.2,0.2h-1.3v4.1c0,0.7,0.2,0.7,0.6,0.7h0.7c0.2,0,0.2,0,0.2,0.2v0.4C247.7,77.9,247.6,78,247.5,78z"/>
		<path class="st0" d="M249.8,70.4h-0.6c-0.1,0-0.2-0.1-0.2-0.2v-0.9c0-0.1,0.1-0.2,0.2-0.2h0.6c0.1,0,0.2,0.1,0.2,0.2v0.9
			C250,70.3,249.9,70.4,249.8,70.4z M249.7,78h-0.6c-0.1,0-0.2-0.1-0.2-0.2v-6c0-0.1,0.1-0.2,0.2-0.2h0.6c0.1,0,0.2,0.1,0.2,0.2v6
			C250,77.9,249.9,78,249.7,78z"/>
		<path class="st0" d="M254.1,78c-1.7,0-2.6-1.1-2.6-2.9v-0.9c0-1.7,0.9-2.9,2.6-2.9c1.7,0,2.6,1.2,2.6,2.9v0.9
			C256.7,76.9,255.8,78,254.1,78z M255.7,74.3c0-1.2-0.5-2-1.6-2s-1.6,0.8-1.6,2v0.9c0,1.2,0.5,2,1.6,2s1.6-0.8,1.6-2V74.3z"/>
		<path class="st0" d="M262.9,78h-0.6c-0.1,0-0.2-0.1-0.2-0.2v-3.9c0-1.2-0.4-1.6-1.3-1.6c-0.5,0-1.1,0.2-1.6,0.5v5
			c0,0.1-0.1,0.2-0.2,0.2h-0.6c-0.1,0-0.2-0.1-0.2-0.2v-6c0-0.1,0.1-0.2,0.2-0.2h0.6c0.1,0,0.2,0.1,0.2,0.2V72
			c0.7-0.4,1.2-0.5,1.9-0.5c1.4,0,2.1,0.9,2.1,2.5v3.9C263.1,77.9,263,78,262.9,78z"/>
		<path class="st0" d="M269,78h-0.5c-0.1,0-0.2-0.1-0.2-0.2v-0.3c-0.6,0.3-1.2,0.6-1.8,0.6c-1,0-1.9-0.4-1.9-1.9v-0.1
			c0-1.3,0.7-1.9,2.9-1.9h0.9v-0.6c0-1-0.3-1.3-1.3-1.3c-0.8,0-1.3,0-1.8,0.1c0,0,0,0-0.1,0s-0.2,0-0.2-0.2v-0.4
			c0-0.1,0.1-0.2,0.2-0.2c0.5-0.1,1-0.2,1.8-0.2c1.6,0,2.3,0.8,2.3,2.2v4.1C269.2,77.9,269.1,78,269,78z M268.2,74.8h-0.9
			c-1.4,0-1.8,0.3-1.8,1.2v0.1c0,0.9,0.4,1.1,1.1,1.1c0.5,0,1-0.2,1.6-0.5L268.2,74.8L268.2,74.8z"/>
		<path class="st0" d="M271.7,78h-0.6c-0.1,0-0.2-0.1-0.2-0.2v-8.4c0-0.1,0.1-0.2,0.2-0.2h0.6c0.1,0,0.2,0.1,0.2,0.2v8.4
			C272,77.8,271.9,78,271.7,78z"/>
		<path class="st0" d="M279.1,78c-0.4,0-0.9,0-1.4-0.1V80c0,0.1-0.1,0.2-0.2,0.2h-0.6c-0.1,0-0.2-0.1-0.2-0.2v-8.2
			c0-0.2,0-0.2,0.2-0.3c0.6-0.2,1.5-0.3,2.2-0.3c1.8,0,2.6,1.2,2.6,2.9V75C281.7,77,280.8,78,279.1,78z M280.7,74.3
			c0-1.2-0.4-2.1-1.5-2.1c-0.5,0-1.1,0.1-1.4,0.1V77c0.4,0.1,1,0.1,1.4,0.1c1.2,0,1.5-0.8,1.5-2V74.3z"/>
		<path class="st0" d="M285.6,78c-1.7,0-2.6-1.1-2.6-2.9v-0.9c0-1.7,0.9-2.9,2.6-2.9c1.7,0,2.6,1.2,2.6,2.9v0.9
			C288.2,76.9,287.3,78,285.6,78z M287.2,74.3c0-1.2-0.5-2-1.6-2s-1.6,0.8-1.6,2v0.9c0,1.2,0.5,2,1.6,2s1.6-0.8,1.6-2V74.3z"/>
		<path class="st0" d="M294.4,78h-0.6c-0.1,0-0.2-0.1-0.2-0.2v-0.2c-0.7,0.4-1.2,0.5-1.9,0.5c-1.4,0-2.1-0.9-2.1-2.5v-3.9
			c0-0.1,0.1-0.2,0.2-0.2h0.6c0.1,0,0.2,0.1,0.2,0.2v3.9c0,1.2,0.4,1.6,1.3,1.6c0.5,0,1.1-0.2,1.6-0.5v-5c0-0.1,0.1-0.2,0.2-0.2h0.6
			c0.1,0,0.2,0.1,0.2,0.2v6C294.6,77.9,294.5,78,294.4,78z"/>
		<path class="st0" d="M298.9,72.3c-0.5,0-1,0.1-1.6,0.5v5c0,0.1-0.1,0.2-0.2,0.2h-0.6c-0.1,0-0.2-0.1-0.2-0.2v-6
			c0-0.1,0.1-0.2,0.2-0.2h0.6c0.1,0,0.2,0.1,0.2,0.2V72c0.6-0.4,1.1-0.6,1.7-0.6c0.2,0,0.2,0.1,0.2,0.2v0.5
			C299.2,72.2,299.1,72.3,298.9,72.3z"/>
		<path class="st0" d="M168,91.8h-0.7c-0.1,0-0.2-0.1-0.2-0.2v-8.3c0-0.1,0.1-0.2,0.2-0.2h0.7c0.1,0,0.2,0.1,0.2,0.2v8.3
			C168.2,91.7,168.2,91.8,168,91.8z"/>
		<path class="st0" d="M171.3,83.1l-0.7,2.2c0,0.2-0.1,0.2-0.2,0.2h-0.5c-0.1,0-0.1,0-0.1-0.1v-0.1l0.4-2.2c0-0.2,0.1-0.2,0.2-0.2
			h0.7C171.2,82.9,171.3,82.9,171.3,83.1C171.3,83,171.3,83.1,171.3,83.1z"/>
		<path class="st0" d="M177.4,91.8c-0.5,0-1.6,0.1-2.3,0.1c-1.7,0-2.5-0.6-2.5-2.2v-4.6c0-1.6,0.9-2.2,2.5-2.2c0.7,0,1.8,0,2.3,0.1
			c0.1,0,0.1,0.1,0.1,0.2v0.6c0,0.1,0,0.1-0.1,0.1h-2.3c-1.3,0-1.5,0.3-1.5,1.2v1.6h3.6c0.1,0,0.2,0.1,0.2,0.2v0.5
			c0,0.1-0.1,0.2-0.2,0.2h-3.6v2c0,0.9,0.2,1.2,1.5,1.2h2.3c0.1,0,0.1,0.1,0.1,0.1v0.6C177.5,91.7,177.4,91.8,177.4,91.8z"/>
		<path class="st0" d="M184.2,91.8h-0.8c-0.1,0-0.1,0-0.2-0.1l-1.7-2.5l-1.7,2.5c-0.1,0.1-0.1,0.1-0.2,0.1h-0.7
			c-0.1,0-0.1,0-0.1-0.1c0,0,0-0.1,0.1-0.2l2.1-3l-2-2.9c0-0.1-0.1-0.1-0.1-0.2s0.1-0.1,0.2-0.1h0.8c0.1,0,0.2,0,0.2,0.2l1.5,2.2
			l1.5-2.2c0.1-0.2,0.1-0.2,0.2-0.2h0.7c0.1,0,0.2,0.1,0.2,0.1s0,0.1-0.1,0.2l-2,2.8l2.2,3.1v0.1C184.3,91.7,184.3,91.8,184.2,91.8z
			"/>
		<path class="st0" d="M188,91.9c-0.4,0-0.9,0-1.4-0.1v2.1c0,0.1-0.1,0.2-0.2,0.2h-0.6c-0.1,0-0.2-0.1-0.2-0.2v-8.2
			c0-0.2,0-0.2,0.2-0.3c0.6-0.2,1.5-0.3,2.2-0.3c1.8,0,2.6,1.2,2.6,2.9v0.9C190.6,90.8,189.7,91.9,188,91.9z M189.5,88.1
			c0-1.2-0.4-2.1-1.5-2.1c-0.5,0-1.1,0.1-1.4,0.1v4.7c0.4,0.1,1,0.1,1.4,0.1c1.2,0,1.5-0.8,1.5-2V88.1z"/>
		<path class="st0" d="M192.9,91.8h-0.6c-0.1,0-0.2-0.1-0.2-0.2v-8.4c0-0.1,0.1-0.2,0.2-0.2h0.6c0.1,0,0.2,0.1,0.2,0.2v8.4
			C193.1,91.7,193,91.8,192.9,91.8z"/>
		<path class="st0" d="M197.2,91.9c-1.7,0-2.6-1.1-2.6-2.9v-0.9c0-1.7,0.9-2.9,2.6-2.9s2.6,1.2,2.6,2.9V89
			C199.9,90.7,199,91.9,197.2,91.9z M198.8,88.1c0-1.2-0.5-2-1.6-2s-1.6,0.8-1.6,2V89c0,1.2,0.5,2,1.6,2s1.6-0.8,1.6-2V88.1z"/>
		<path class="st0" d="M204,86.1c-0.5,0-1,0.1-1.6,0.5v5c0,0.1-0.1,0.2-0.2,0.2h-0.6c-0.1,0-0.2-0.1-0.2-0.2v-6
			c0-0.1,0.1-0.2,0.2-0.2h0.6c0.1,0,0.2,0.1,0.2,0.2v0.2c0.6-0.4,1.1-0.6,1.7-0.6c0.2,0,0.2,0.1,0.2,0.2v0.5
			C204.2,86,204.1,86.1,204,86.1z"/>
		<path class="st0" d="M209.6,91.8h-0.5c-0.1,0-0.2-0.1-0.2-0.2v-0.3c-0.6,0.3-1.2,0.6-1.8,0.6c-1,0-1.9-0.4-1.9-1.9v-0.1
			c0-1.3,0.7-1.9,2.9-1.9h0.9v-0.5c0-1-0.3-1.3-1.3-1.3c-0.8,0-1.3,0-1.8,0.1c0,0,0,0-0.1,0c-0.1,0-0.2,0-0.2-0.2v-0.5
			c0-0.1,0.1-0.2,0.2-0.2c0.5-0.1,1-0.2,1.8-0.2c1.6,0,2.3,0.8,2.3,2.2v4.2C209.9,91.7,209.8,91.8,209.6,91.8z M208.8,88.6h-0.9
			c-1.4,0-1.8,0.3-1.8,1.2v0.1c0,0.9,0.4,1.1,1.1,1.1c0.5,0,1-0.2,1.6-0.5L208.8,88.6L208.8,88.6z"/>
		<path class="st0" d="M214.7,91.8c-0.2,0-0.5,0.1-0.8,0.1c-1.1,0-1.6-0.3-1.6-1.6v-4.1l-1.2-0.1c-0.1,0-0.2-0.1-0.2-0.2v-0.3
			c0-0.1,0.1-0.2,0.2-0.2h1.2v-1.2c0-0.1,0.1-0.2,0.2-0.2l0.6-0.1l0,0c0.1,0,0.2,0.1,0.2,0.2v1.3h1.3c0.1,0,0.2,0.1,0.2,0.2V86
			c0,0.1-0.1,0.2-0.2,0.2h-1.3v4.1c0,0.7,0.2,0.7,0.6,0.7h0.7c0.2,0,0.2,0,0.2,0.2v0.4C214.9,91.7,214.8,91.8,214.7,91.8z"/>
		<path class="st0" d="M217,84.2h-0.6c-0.1,0-0.2-0.1-0.2-0.2v-0.9c0-0.1,0.1-0.2,0.2-0.2h0.6c0.1,0,0.2,0.1,0.2,0.2V84
			C217.2,84.1,217.1,84.2,217,84.2z M216.9,91.8h-0.6c-0.1,0-0.2-0.1-0.2-0.2v-6c0-0.1,0.1-0.2,0.2-0.2h0.6c0.1,0,0.2,0.1,0.2,0.2v6
			C217.2,91.7,217.1,91.8,216.9,91.8z"/>
		<path class="st0" d="M221.3,91.9c-1.7,0-2.6-1.1-2.6-2.9v-0.9c0-1.7,0.9-2.9,2.6-2.9c1.7,0,2.6,1.2,2.6,2.9V89
			C223.9,90.7,223,91.9,221.3,91.9z M222.9,88.1c0-1.2-0.5-2-1.6-2s-1.6,0.8-1.6,2V89c0,1.2,0.5,2,1.6,2s1.6-0.8,1.6-2V88.1z"/>
		<path class="st0" d="M230.1,91.8h-0.6c-0.1,0-0.2-0.1-0.2-0.2v-3.9c0-1.2-0.4-1.6-1.3-1.6c-0.5,0-1.1,0.2-1.6,0.5v5
			c0,0.1-0.1,0.2-0.2,0.2h-0.6c-0.1,0-0.2-0.1-0.2-0.2v-6c0-0.1,0.1-0.2,0.2-0.2h0.6c0.1,0,0.2,0.1,0.2,0.2v0.2
			c0.7-0.4,1.2-0.5,1.9-0.5c1.4,0,2.1,0.9,2.1,2.5v3.8C230.3,91.7,230.2,91.8,230.1,91.8z"/>
		<path class="st0" d="M239.5,91.7c-0.7,0.1-1.5,0.2-2.2,0.2c-1.8,0-2.6-1.1-2.6-2.9v-0.9c0-1.9,0.9-2.9,2.6-2.9
			c0.4,0,0.9,0,1.4,0.1v-2.2c0-0.1,0.1-0.2,0.2-0.2h0.6c0.1,0,0.2,0.1,0.2,0.2v8.3C239.7,91.6,239.7,91.6,239.5,91.7z M238.7,86.2
			c-0.4-0.1-1-0.1-1.4-0.1c-1.2,0-1.5,0.7-1.5,2V89c0,1.3,0.4,2,1.5,2c0.4,0,1,0,1.4-0.1V86.2z"/>
		<path class="st0" d="M246.2,88.9h-4v0.2c0,1.4,0.6,1.9,1.6,1.9c0.7,0,1.6,0,2.1-0.1c0,0,0,0,0.1,0s0.2,0,0.2,0.2v0.4
			c0,0.2,0,0.2-0.2,0.3c-0.7,0.1-1.3,0.2-2.1,0.2c-1.4,0-2.7-0.6-2.7-2.8v-1.1c0-1.7,0.9-2.8,2.6-2.8c1.7,0,2.6,1.1,2.6,2.8v0.5
			C246.4,88.8,246.3,88.9,246.2,88.9z M245.4,88c0-1.3-0.5-1.9-1.6-1.9c-1,0-1.6,0.6-1.6,1.9v0.1L245.4,88L245.4,88L245.4,88z"/>
		<path class="st0" d="M251.8,91.8h-0.6c-0.1,0-0.2-0.1-0.2-0.2v-8.4c0-0.1,0.1-0.2,0.2-0.2h0.6c0.1,0,0.2,0.1,0.2,0.2v8.4
			C252,91.7,251.9,91.8,251.8,91.8z"/>
		<path class="st0" d="M257.9,91.8h-0.5c-0.1,0-0.2-0.1-0.2-0.2v-0.3c-0.6,0.3-1.2,0.6-1.8,0.6c-1,0-1.9-0.4-1.9-1.9v-0.1
			c0-1.3,0.7-1.9,2.9-1.9h0.9v-0.5c0-1-0.3-1.3-1.3-1.3c-0.8,0-1.3,0-1.8,0.1c0,0,0,0-0.1,0s-0.2,0-0.2-0.2v-0.5
			c0-0.1,0.1-0.2,0.2-0.2c0.5-0.1,1-0.2,1.8-0.2c1.6,0,2.3,0.8,2.3,2.2v4.2C258.2,91.7,258,91.8,257.9,91.8z M257.1,88.6h-0.9
			c-1.4,0-1.8,0.3-1.8,1.2v0.1c0,0.9,0.4,1.1,1.1,1.1c0.5,0,1-0.2,1.6-0.5V88.6z"/>
		<path class="st0" d="M269.8,91.8h-0.6c-0.1,0-0.2-0.1-0.2-0.2v-7l0,0l0,0l-1.7,3.5c-0.1,0.2-0.2,0.3-0.5,0.3h-0.5
			c-0.3,0-0.4-0.1-0.5-0.3l-1.7-3.5l0,0l0,0v7c0,0.1-0.1,0.2-0.2,0.2h-0.6c-0.1,0-0.2-0.1-0.2-0.2v-8.2c0-0.2,0.2-0.3,0.3-0.3h0.8
			c0.2,0,0.3,0,0.4,0.2l2,4.1c0,0.1,0.1,0.1,0.1,0.1c0.1,0,0.1,0,0.1-0.1l2-4.1c0.1-0.2,0.2-0.2,0.4-0.2h0.8c0.2,0,0.3,0.2,0.3,0.3
			v8.2C270.1,91.7,270,91.8,269.8,91.8z"/>
		<path class="st0" d="M281,86.1c-0.5,0-1,0.1-1.6,0.5v5c0,0.1-0.1,0.2-0.2,0.2h-0.6c-0.1,0-0.2-0.1-0.2-0.2v-6
			c0-0.1,0.1-0.2,0.2-0.2h0.6c0.1,0,0.2,0.1,0.2,0.2v0.2c0.6-0.4,1.1-0.6,1.7-0.6c0.2,0,0.2,0.1,0.2,0.2v0.5
			C281.2,86,281.1,86.1,281,86.1z"/>
		<path class="st0" d="M276.8,88.9h-4V89c0,1.4,0.6,1.9,1.6,1.9c0.7,0,1.6,0,2.1-0.1c0,0,0,0,0.1,0s0.2,0,0.2,0.2v0.4
			c0,0.2,0,0.2-0.2,0.3c-0.7,0.1-1.3,0.2-2.1,0.2c-1.4,0-2.7-0.6-2.7-2.8V88c0-1.7,0.9-2.8,2.6-2.8s2.6,1.1,2.6,2.8v0.6
			C277,88.8,276.9,88.9,276.8,88.9z M275.9,88c0-1.3-0.5-1.9-1.6-1.9c-1,0-1.6,0.6-1.6,1.9v0.1L275.9,88L275.9,88L275.9,88z"/>
	</g>
</g>
</svg>
