<?xml version="1.0" encoding="iso-8859-1"?>
<!-- Generator: Adobe Illustrator 19.1.0, SVG Export Plug-In . SVG Version: 6.00 Build 0)  -->
<svg version="1.1" id="Layer_1" xmlns="http://www.w3.org/2000/svg" xmlns:xlink="http://www.w3.org/1999/xlink" x="0px" y="0px"
	 viewBox="0 0 300 84.615" style="enable-background:new 0 0 300 84.615;" xml:space="preserve">
<path style="fill:#FFFFFF;" d="M299.855,6.341V0.617h-17.411c-0.171,0.446-0.206,1.062-0.171,1.337l2.571,0.891
	c0.583,0.206,0.823,0.823,0.823,1.371v11.276l-0.103,5.072c0,0.96-0.514,1.919-1.337,2.159l-1.988,0.617
	c-0.034,0.446,0.034,0.994,0.137,1.508h10.967c0.137-0.377,0.171-1.577,0.171-1.885l-3.907-0.788
	c-0.823-0.171-0.72-0.514-0.754-1.165l-0.103-5.484v-1.028l9.665,0.171v-2.742l-9.665,0.308V2.845l6.341,0.377
	c2.228,0.137,2.708,1.474,3.119,3.085C298.484,6.443,299.478,6.409,299.855,6.341z M275.836,12.373
	c0,5.724-2.091,10.419-8.534,10.419c-6.066,0-8.191-4.319-8.191-9.802c0-5.655,2.228-10.351,8.431-10.351
	C273.471,2.639,275.836,6.649,275.836,12.373z M279.606,11.824c0-7.129-3.976-11.584-11.756-11.584
	c-7.437,0-12.51,5.655-12.51,13.332c0,7.403,4.353,11.687,11.859,11.687C274.944,25.26,279.606,19.296,279.606,11.824z
	 M244.522,19.193l-1.542-0.24c-0.48,1.508-1.782,3.05-4.147,3.393l-5.621,0.137l-0.171-6.992V3.873c0-1.028,0.377-1.131,1.302-1.337
	l1.645-0.411c0.034-0.446-0.034-0.994-0.137-1.508h-8.98c-0.103,0.377-0.137,1.097-0.137,1.405l2.159,0.72
	c0.72,0.24,1.028,1.302,1.028,2.125v10.659l-0.103,5.072c0,0.925-0.446,1.782-1.268,1.988l-2.194,0.617
	c-0.034,0.446,0.034,1.131,0.137,1.645h17.342L244.522,19.193z M216.149,12.818h-6.889l2.81-7.163l0.857-2.605h0.24l0.72,2.673
	L216.149,12.818z M224.855,23.34c-1.097-0.754-2.228-2.125-2.605-3.119L214.984,0l-3.188,0.925l-8.226,19.673
	c-0.446,1.062-1.165,1.919-2.296,2.742c0,0.446,0.034,0.994,0.137,1.508h8.191c0.103-0.377,0.137-1.2,0.137-1.508l-1.885-0.548
	c-1.131-0.343-1.714-1.062-1.714-1.851c0-0.171,0.034-0.377,0.103-0.548l2.125-5.347h8.5l1.645,5.004
	c0.068,0.274,0.103,0.514,0.103,0.823c0,0.788-0.343,1.577-0.994,1.748l-2.433,0.72c0,0.48,0.034,0.994,0.137,1.508h9.391
	C224.821,24.471,224.855,23.649,224.855,23.34z M201.075,1.954c0-0.446-0.068-0.823-0.137-1.337h-8.98
	c-0.137,0.377-0.137,1.097-0.137,1.405l2.159,0.72c0.72,0.274,1.268,1.337,1.268,2.194v10.693l0.343,3.599h-0.24L182.43,0.617
	h-6.923c-0.103,0.377-0.069,1.097-0.069,1.405l2.091,0.72c0.617,0.24,0.994,0.994,0.994,1.748v11.002l-0.069,4.353
	c-0.034,1.097-0.583,2.571-1.645,2.879l-1.988,0.617c-0.034,0.446,0.034,0.994,0.137,1.508h9.631
	c0.137-0.377,0.171-1.268,0.171-1.577l-2.913-0.994c-0.754-0.274-0.823-0.48-0.823-1.302l-0.103-5.484V7.369l-0.308-2.742h0.24
	l14.189,20.941l2.605-0.754V4.901c0-0.994,0.548-2.125,1.405-2.365L201.075,1.954z M165.917,7.472c0,3.187-1.885,4.833-5.655,4.833
	h-3.187v-9.46l3.222,0.069c3.804,0.069,5.655,1.611,5.655,4.558H165.917z M175.102,24.06c-1.988-0.446-3.187-1.577-5.449-3.839
	c-1.645-1.679-3.839-5.141-4.661-6.478c2.913-0.891,4.456-3.667,4.456-6.443c0-4.97-3.462-6.683-8.294-6.683h-10.351
	c-0.171,0.446-0.206,1.062-0.171,1.337l2.571,0.891c0.446,0.171,0.685,0.583,0.788,0.994v11.653l-0.103,5.072
	c-0.137,0.96-0.583,1.885-1.371,2.159l-1.645,0.617c-0.034,0.446,0.034,0.994,0.103,1.508h9.459
	c0.137-0.377,0.137-1.474,0.137-1.782l-2.776-0.651c-0.411-0.068-0.583-0.343-0.583-0.925l-0.137-6.923h3.016
	c0.72,0,0.72,0,1.337-0.103c0.857,1.542,3.153,5.895,5.244,8.089c2.468,2.639,6.341,2.982,8.02,3.085L175.102,24.06z M149.026,2.091
	c0-0.446,0-0.96-0.103-1.474h-8.98c-0.103,0.377-0.034,1.097-0.034,1.405l1.474,0.446c1.577,0.446,1.919,1.508,1.919,2.331V15.56
	c0,5.484-2.571,7.369-6.306,7.369c-3.016,0-6.341-1.611-6.341-6.546V3.701c0-0.651,0.206-0.96,0.891-1.097l1.954-0.411
	c0.034-0.446,0.034-1.062-0.069-1.577h-9.22c-0.103,0.377-0.137,1.097-0.137,1.405l2.159,0.72c0.617,0.206,0.994,1.028,0.994,1.782
	v12.099c0,6.992,4.901,8.671,9.597,8.671c4.284,0,9.562-2.433,9.562-9.597V4.01c0-1.028,0.48-1.2,0.925-1.371L149.026,2.091z
	 M118.014,12.373c0,5.724-2.091,10.419-8.534,10.419c-6.066,0-8.191-4.319-8.191-9.802c0-5.655,2.228-10.351,8.431-10.351
	C115.649,2.639,118.014,6.649,118.014,12.373z M121.784,11.824c0-7.129-3.976-11.584-11.756-11.584
	c-7.437,0-12.51,5.655-12.51,13.332c0,7.403,4.353,11.687,11.859,11.687C117.123,25.26,121.784,19.296,121.784,11.824z
	 M94.887,2.125c0.034-0.446-0.034-0.994-0.103-1.508h-8.98c-0.137,0.377-0.171,1.097-0.171,1.405l1.508,0.514
	c1.097,0.377,1.645,1.611,1.645,2.536v14.772c0,4.798-1.371,7.197-4.97,9.391l1.165,2.022c4.147-2.091,6.958-4.319,6.958-9.391
	V4.044c0-0.994,0.24-1.268,1.302-1.508L94.887,2.125z M74.233,18.302c0-4.661-4.01-6.272-7.574-7.711
	c-2.845-1.131-5.038-2.536-5.038-4.01c0-2.913,1.919-4.079,5.004-4.079c2.536,0,4.867,1.782,5.381,4.319h1.439V1.439
	c-1.611-0.823-4.216-1.165-6.889-1.165c-4.113,0-7.986,2.639-7.986,6.855c0,3.976,3.222,5.655,6.306,6.855
	c3.085,1.2,6.032,2.125,6.032,4.764c0,3.016-2.091,4.319-4.867,4.319c-2.948,0-5.895-1.816-6.306-5.038h-1.816l-0.274,5.724
	c2.194,0.96,4.97,1.474,7.369,1.474C69.537,25.225,74.233,23.237,74.233,18.302z M55.354,19.193l-1.542-0.24
	c-0.514,1.542-1.851,3.496-4.387,3.53l-6.409,0.103l-0.171-7.095v-1.679l9.288,0.171v-2.605l-9.288,0.171V2.845l6.581,0.206
	c1.714,0.034,2.331,1.028,2.708,3.085c0.377,0,1.337,0.103,1.782-0.034V0.617H36.504c-0.171,0.446-0.206,1.062-0.171,1.337
	l2.571,0.891c0.583,0.206,0.823,0.823,0.823,1.371v11.242l-0.103,5.107c0,0.96-0.514,1.782-1.337,1.988l-2.331,0.617
	c-0.034,0.446,0.034,1.165,0.137,1.679h18.611L55.354,19.193z M33.494,24.163l-0.72-2.296c-0.822,0.171-2.365,0.583-5.587,0.583
	c-5.587,0-9.768-2.879-9.768-9.905c0-7.095,3.804-10.008,8.877-10.008c3.187,0,4.456,1.714,5.312,4.147h1.577V1.508
	c-1.268-0.514-2.536-1.302-6.752-1.302c-7.917,0-12.373,5.484-12.373,12.681c0,8.466,4.524,12.201,12.51,12.201
	C30.821,25.088,32.877,24.369,33.494,24.163z M11.499,23.135l-2.742-0.583C8.037,22.415,7.9,22.175,7.9,21.318l-0.103-5.826V5.107
	c0-1.097,0.411-2.399,1.508-2.639l1.405-0.309c0.034-0.446,0-1.028-0.103-1.542h-8.98C1.525,0.994,1.525,1.714,1.594,2.022
	l1.371,0.514C4.37,3.016,4.678,4.113,4.678,5.21v10.282L4.61,20.256c-0.034,1.028-0.411,2.022-1.302,2.365l-1.816,0.72
	c-0.034,0.446,0.034,0.994,0.137,1.508h9.699C11.465,24.471,11.499,23.443,11.499,23.135z"/>
<path style="fill:#FFFFFF;" d="M300,53.473l-1.542-0.24c-0.514,1.542-1.851,3.496-4.387,3.53l-6.409,0.103l-0.171-7.095v-1.679
	l9.288,0.171v-2.605l-9.288,0.171v-8.706l6.581,0.206c1.714,0.034,2.331,1.028,2.708,3.085c0.377,0,1.337,0.103,1.782-0.034v-5.484
	h-17.411c-0.171,0.446-0.206,1.062-0.171,1.337l2.571,0.891c0.583,0.206,0.823,0.823,0.823,1.371v11.242l-0.103,5.107
	c0,0.96-0.514,1.782-1.337,1.988l-2.331,0.617c-0.034,0.446,0.034,1.165,0.137,1.679h18.611L300,53.473z M278.14,58.442l-0.72-2.296
	c-0.823,0.171-2.365,0.583-5.587,0.583c-5.587,0-9.768-2.879-9.768-9.905c0-7.095,3.804-10.008,8.877-10.008
	c3.187,0,4.456,1.714,5.312,4.147h1.577v-5.175c-1.268-0.514-2.536-1.302-6.752-1.302c-7.917,0-12.373,5.484-12.373,12.681
	c0,8.466,4.524,12.201,12.51,12.201C275.467,59.368,277.523,58.648,278.14,58.442z M256.382,36.233c0-0.446-0.069-0.823-0.137-1.337
	h-8.98c-0.137,0.377-0.137,1.097-0.137,1.405l2.159,0.72c0.72,0.274,1.268,1.337,1.268,2.194v10.693l0.343,3.599h-0.24
	l-12.921-18.611h-6.923c-0.103,0.377-0.069,1.097-0.069,1.405l2.091,0.72c0.617,0.24,0.994,0.994,0.994,1.748v11.002l-0.069,4.353
	c-0.034,1.097-0.583,2.571-1.645,2.879l-1.988,0.617c-0.034,0.446,0.034,0.994,0.137,1.508h9.631
	c0.137-0.377,0.171-1.268,0.171-1.577l-2.913-0.994c-0.754-0.274-0.823-0.48-0.823-1.302l-0.103-5.484v-8.123l-0.308-2.742h0.24
	l14.189,20.941l2.605-0.754V39.18c0-0.994,0.548-2.125,1.405-2.365L256.382,36.233z M228.01,53.473l-1.542-0.24
	c-0.514,1.542-1.851,3.496-4.387,3.53l-6.409,0.103l-0.171-7.095v-1.679l9.288,0.171v-2.605L215.5,45.83v-8.706l6.581,0.206
	c1.714,0.034,2.331,1.028,2.708,3.085c0.377,0,1.337,0.103,1.782-0.034v-5.484h-17.411c-0.171,0.446-0.206,1.062-0.171,1.337
	l2.571,0.891c0.583,0.206,0.823,0.823,0.823,1.371v11.242l-0.103,5.107c0,0.96-0.514,1.782-1.337,1.988l-2.331,0.617
	c-0.034,0.446,0.034,1.165,0.137,1.679h18.611L228.01,53.473z M206.734,57.414l-2.742-0.583c-0.72-0.137-0.857-0.377-0.857-1.234
	l-0.103-5.826V39.386c0-1.097,0.411-2.399,1.508-2.639l1.405-0.309c0.034-0.446,0-1.028-0.103-1.542h-8.98
	c-0.103,0.377-0.103,1.097-0.034,1.405l1.371,0.514c1.405,0.48,1.714,1.577,1.714,2.673v10.282l-0.068,4.764
	c-0.034,1.028-0.411,2.022-1.302,2.365l-1.816,0.72c-0.034,0.446,0.034,0.994,0.137,1.508h9.699
	C206.7,58.751,206.734,57.723,206.734,57.414z M194.265,58.442l-0.72-2.296c-0.823,0.171-2.365,0.583-5.587,0.583
	c-5.587,0-9.768-2.879-9.768-9.905c0-7.095,3.804-10.008,8.877-10.008c3.187,0,4.456,1.714,5.312,4.147h1.577v-5.175
	c-1.268-0.514-2.536-1.302-6.752-1.302c-7.917,0-12.373,5.484-12.373,12.681c0,8.466,4.524,12.201,12.51,12.201
	C191.592,59.368,193.648,58.648,194.265,58.442z M171.754,52.581c0-4.661-4.01-6.272-7.575-7.711
	c-2.845-1.131-5.038-2.536-5.038-4.01c0-2.913,1.919-4.079,5.004-4.079c2.536,0,4.867,1.782,5.381,4.319h1.439v-5.381
	c-1.611-0.823-4.216-1.165-6.889-1.165c-4.113,0-7.986,2.639-7.986,6.855c0,3.976,3.222,5.655,6.306,6.855
	c3.085,1.2,6.032,2.125,6.032,4.764c0,3.016-2.091,4.319-4.867,4.319c-2.947,0-5.895-1.816-6.306-5.038h-1.816l-0.274,5.724
	c2.193,0.96,4.97,1.474,7.369,1.474C167.059,59.505,171.754,57.517,171.754,52.581z M143.901,53.473l-1.542-0.24
	c-0.514,1.542-1.851,3.496-4.387,3.53l-6.409,0.103l-0.171-7.095v-1.679l9.288,0.171v-2.605l-9.288,0.171v-8.706l6.581,0.206
	c1.714,0.034,2.331,1.028,2.708,3.085c0.377,0,1.337,0.103,1.782-0.034v-5.484h-17.411c-0.171,0.446-0.206,1.062-0.171,1.337
	l2.571,0.891c0.583,0.206,0.823,0.823,0.823,1.371v11.242l-0.103,5.107c0,0.96-0.514,1.782-1.337,1.988l-2.331,0.617
	c-0.034,0.446,0.034,1.165,0.137,1.679h18.611L143.901,53.473z M122.863,36.233c0-0.446-0.068-0.823-0.137-1.337h-8.98
	c-0.137,0.377-0.137,1.097-0.137,1.405l2.159,0.72c0.72,0.274,1.268,1.337,1.268,2.194v10.693l0.343,3.599h-0.24l-12.921-18.611
	h-6.923c-0.103,0.377-0.069,1.097-0.069,1.405l2.091,0.72c0.617,0.24,0.994,0.994,0.994,1.748v11.002l-0.069,4.353
	c-0.034,1.097-0.583,2.571-1.645,2.879L96.61,57.62c-0.034,0.446,0.034,0.994,0.137,1.508h9.631
	c0.137-0.377,0.171-1.268,0.171-1.577l-2.913-0.994c-0.754-0.274-0.822-0.48-0.822-1.302l-0.103-5.484v-8.123l-0.308-2.742h0.24
	l14.189,20.941l2.605-0.754V39.18c0-0.994,0.548-2.125,1.405-2.365L122.863,36.233z M94.733,57.414l-2.742-0.583
	c-0.72-0.137-0.857-0.377-0.857-1.234l-0.103-5.826V39.386c0-1.097,0.411-2.399,1.508-2.639l1.405-0.309
	c0.034-0.446,0-1.028-0.103-1.542h-8.98c-0.103,0.377-0.103,1.097-0.034,1.405l1.371,0.514c1.405,0.48,1.714,1.577,1.714,2.673
	v10.282l-0.069,4.764c-0.034,1.028-0.411,2.022-1.302,2.365l-1.816,0.72c-0.034,0.446,0.034,0.994,0.137,1.508h9.699
	C94.699,58.751,94.733,57.723,94.733,57.414z M75.82,41.751c0,3.187-1.885,4.833-5.655,4.833h-3.188v-9.46l3.222,0.069
	c3.804,0.069,5.655,1.611,5.655,4.558H75.82z M85.006,58.339c-1.988-0.446-3.187-1.577-5.449-3.839
	c-1.645-1.679-3.839-5.141-4.661-6.478c2.913-0.891,4.456-3.667,4.456-6.443c0-4.97-3.462-6.683-8.294-6.683H60.706
	c-0.171,0.446-0.206,1.062-0.171,1.337l2.571,0.891c0.446,0.171,0.685,0.583,0.788,0.994v11.653l-0.103,5.072
	c-0.137,0.96-0.583,1.885-1.371,2.159l-1.645,0.617c-0.034,0.446,0.034,0.994,0.103,1.508h9.46c0.137-0.377,0.137-1.474,0.137-1.782
	l-2.776-0.651c-0.411-0.068-0.583-0.343-0.583-0.925l-0.137-6.923h3.016c0.72,0,0.72,0,1.337-0.103
	c0.857,1.542,3.153,5.895,5.244,8.089c2.468,2.639,6.341,2.982,8.02,3.085L85.006,58.339z M50.327,47.098h-6.889l2.81-7.163
	l0.857-2.605h0.24l0.72,2.673L50.327,47.098z M59.032,57.62c-1.097-0.754-2.228-2.125-2.605-3.119l-7.266-20.221l-3.188,0.925
	l-8.226,19.673c-0.446,1.062-1.165,1.919-2.296,2.742c0,0.446,0.034,0.994,0.137,1.508h8.191c0.103-0.377,0.137-1.2,0.137-1.508
	l-1.885-0.548c-1.131-0.343-1.714-1.062-1.714-1.851c0-0.171,0.034-0.377,0.103-0.548l2.125-5.347h8.5l1.645,5.004
	c0.068,0.274,0.103,0.514,0.103,0.823c0,0.788-0.343,1.577-0.994,1.748l-2.433,0.72c0,0.48,0.034,0.994,0.137,1.508h9.391
	C58.998,58.751,59.032,57.928,59.032,57.62z M34.085,57.551l-1.542-0.754c-0.583-0.24-1.131-0.96-1.234-1.714l-2.125-15.56
	c-0.206-1.508,0.411-2.433,1.234-2.708l1.679-0.583c0.034-0.446-0.034-0.823-0.137-1.337h-6.443l-5.895,14.052l-1.851,5.312h-0.309
	l-1.748-5.141l-5.518-14.224H3.445c-0.103,0.377-0.137,1.097-0.137,1.405l2.159,0.72c0.651,0.24,1.131,1.131,0.994,1.919
	L3.89,54.329c-0.171,1.062-0.857,2.194-1.816,2.673L0.84,57.62c-0.034,0.446,0.034,0.994,0.137,1.508h8.877
	c0.137-0.377,0.137-1.302,0.137-1.611l-3.222-1.028c-0.377-0.103-0.48-0.48-0.377-1.097l2.159-13.744L8.586,39.9h0.206l7.369,19.947
	l2.33-0.754l7.609-18.953h0.171l0.103,1.816l1.371,11.447c0.137,1.302,0.24,3.359-1.234,3.77l-1.508,0.446
	c0,0.446,0.069,0.994,0.137,1.508h8.808C34.051,58.751,34.085,57.86,34.085,57.551z"/>
<path style="fill:#FFFFFF;" d="M190.683,78.581l-0.771-0.12c-0.24,0.754-0.892,1.526-2.074,1.697l-2.811,0.069l-0.086-3.497v-5.812
	c0-0.514,0.189-0.566,0.652-0.669l0.823-0.206c0.017-0.223-0.017-0.497-0.069-0.754h-4.492c-0.052,0.189-0.069,0.549-0.069,0.703
	l1.08,0.36c0.36,0.12,0.514,0.651,0.514,1.063v5.332l-0.052,2.537c0,0.463-0.223,0.892-0.634,0.994l-1.097,0.309
	c-0.017,0.223,0.017,0.566,0.069,0.823h8.675L190.683,78.581z M180.66,80.552l-1.372-0.291c-0.36-0.069-0.428-0.189-0.428-0.617
	l-0.051-2.914v-5.194c0-0.549,0.206-1.2,0.754-1.32l0.703-0.154c0.017-0.223,0-0.514-0.052-0.771h-4.492
	c-0.051,0.189-0.051,0.549-0.017,0.703l0.686,0.257c0.703,0.24,0.857,0.789,0.857,1.337v5.143l-0.034,2.383
	c-0.017,0.514-0.206,1.011-0.651,1.183l-0.909,0.36c-0.017,0.223,0.017,0.497,0.068,0.754h4.852
	C180.643,81.221,180.66,80.706,180.66,80.552z M174.599,78.581l-0.772-0.12c-0.257,0.771-0.926,1.749-2.194,1.766l-3.206,0.051
	l-0.086-3.549v-0.84l4.646,0.086v-1.303l-4.646,0.086v-4.354l3.292,0.103c0.857,0.017,1.166,0.514,1.354,1.543
	c0.189,0,0.669,0.051,0.892-0.017v-2.743h-8.709c-0.086,0.223-0.103,0.531-0.086,0.669l1.286,0.446
	c0.291,0.103,0.411,0.411,0.411,0.686v5.623l-0.051,2.554c0,0.48-0.257,0.891-0.669,0.994l-1.166,0.309
	c-0.017,0.223,0.017,0.583,0.069,0.84h9.309L174.599,78.581z M163.703,78.135c0-2.332-2.006-3.137-3.789-3.857
	c-1.423-0.566-2.52-1.269-2.52-2.006c0-1.457,0.96-2.04,2.503-2.04c1.269,0,2.434,0.891,2.691,2.16h0.72V69.7
	c-0.806-0.411-2.109-0.583-3.446-0.583c-2.057,0-3.994,1.32-3.994,3.429c0,1.989,1.612,2.829,3.154,3.429
	c1.543,0.6,3.017,1.063,3.017,2.383c0,1.509-1.046,2.16-2.434,2.16c-1.474,0-2.949-0.909-3.154-2.52h-0.909l-0.137,2.863
	c1.097,0.48,2.486,0.737,3.686,0.737C161.354,81.598,163.703,80.604,163.703,78.135z M154.505,69.958
	c0-0.223-0.034-0.411-0.069-0.669h-4.492c-0.069,0.189-0.069,0.549-0.069,0.703l1.08,0.36c0.36,0.137,0.634,0.669,0.634,1.097v5.349
	l0.172,1.8h-0.12l-6.463-9.309h-3.463c-0.051,0.189-0.034,0.549-0.034,0.703l1.046,0.36c0.309,0.12,0.497,0.497,0.497,0.874v5.503
	l-0.034,2.177c-0.017,0.549-0.291,1.286-0.823,1.44l-0.994,0.309c-0.017,0.223,0.017,0.497,0.068,0.754h4.817
	c0.068-0.189,0.086-0.634,0.086-0.789l-1.457-0.497c-0.377-0.137-0.412-0.24-0.412-0.651l-0.051-2.743v-4.063l-0.154-1.372h0.12
	l7.097,10.475l1.303-0.377v-9.96c0-0.497,0.274-1.063,0.703-1.183L154.505,69.958z M138.176,75.169c0,2.863-1.046,5.212-4.269,5.212
	c-3.034,0-4.097-2.16-4.097-4.903c0-2.829,1.114-5.177,4.217-5.177C136.993,70.3,138.176,72.306,138.176,75.169z M140.061,74.895
	c0-3.566-1.989-5.794-5.88-5.794c-3.72,0-6.257,2.829-6.257,6.669c0,3.703,2.177,5.846,5.932,5.846
	C137.73,81.615,140.061,78.632,140.061,74.895z M126.354,81.066l-0.36-1.149c-0.411,0.086-1.183,0.291-2.794,0.291
	c-2.794,0-4.886-1.44-4.886-4.954c0-3.549,1.903-5.006,4.44-5.006c1.594,0,2.229,0.857,2.657,2.074h0.789v-2.589
	c-0.634-0.257-1.269-0.651-3.377-0.651c-3.96,0-6.189,2.743-6.189,6.343c0,4.234,2.263,6.103,6.257,6.103
	C125.017,81.529,126.046,81.169,126.354,81.066z M111.006,70.026c0-0.223,0-0.48-0.052-0.737h-4.492
	c-0.051,0.189-0.017,0.549-0.017,0.703l0.737,0.223c0.789,0.223,0.96,0.754,0.96,1.166v5.383c0,2.743-1.286,3.686-3.154,3.686
	c-1.509,0-3.172-0.806-3.172-3.274v-6.343c0-0.326,0.103-0.48,0.446-0.549l0.977-0.206c0.017-0.223,0.017-0.531-0.034-0.789h-4.612
	c-0.051,0.189-0.068,0.549-0.068,0.703l1.08,0.36c0.309,0.103,0.497,0.514,0.497,0.891v6.052c0,3.497,2.451,4.337,4.8,4.337
	c2.143,0,4.783-1.217,4.783-4.8v-5.846c0-0.514,0.24-0.6,0.463-0.686L111.006,70.026z M95.499,75.358c0,3.566-1.526,4.92-4.68,4.92
	h-1.851l-0.103-3.549v-6.292h1.612C93.734,70.438,95.499,71.895,95.499,75.358z M97.385,75.049c0-4.783-2.949-5.76-6.857-5.76
	h-4.834c-0.086,0.223-0.086,0.566-0.069,0.703l1.269,0.411c0.274,0.086,0.411,0.343,0.411,0.617l-0.017,5.692l-0.034,2.4
	c0,0.566-0.206,1.046-0.669,1.166l-1.166,0.309c-0.017,0.223,0.017,0.566,0.068,0.823h5.143
	C94.676,81.409,97.385,79.249,97.385,75.049z M80.356,78.581l-0.771-0.12c-0.24,0.754-0.892,1.526-2.074,1.697l-2.812,0.069
	l-0.086-3.497v-5.812c0-0.514,0.189-0.566,0.652-0.669l0.823-0.206c0.017-0.223-0.017-0.497-0.069-0.754h-4.492
	c-0.051,0.189-0.069,0.549-0.069,0.703l1.08,0.36c0.36,0.12,0.514,0.651,0.514,1.063v5.332l-0.052,2.537
	c0,0.463-0.223,0.892-0.634,0.994l-1.097,0.309c-0.017,0.223,0.017,0.566,0.069,0.823h8.675L80.356,78.581z M66.169,75.392h-3.446
	l1.406-3.583l0.429-1.303h0.12l0.36,1.337L66.169,75.392z M70.524,80.655c-0.549-0.377-1.114-1.063-1.303-1.56L65.586,68.98
	l-1.594,0.463l-4.114,9.84c-0.223,0.532-0.583,0.96-1.149,1.372c0,0.223,0.017,0.497,0.069,0.754h4.097
	c0.051-0.189,0.068-0.6,0.068-0.754l-0.943-0.274c-0.566-0.171-0.857-0.531-0.857-0.926c0-0.086,0.017-0.189,0.051-0.274
	l1.063-2.674h4.251l0.823,2.503c0.034,0.137,0.052,0.257,0.052,0.411c0,0.394-0.171,0.789-0.497,0.874l-1.217,0.36
	c0,0.24,0.017,0.497,0.069,0.754h4.697C70.507,81.221,70.524,80.809,70.524,80.655z M58.634,69.958c0-0.223-0.034-0.411-0.069-0.669
	h-4.492c-0.068,0.189-0.068,0.549-0.068,0.703l1.08,0.36c0.36,0.137,0.634,0.669,0.634,1.097v5.349l0.171,1.8h-0.12l-6.463-9.309
	h-3.463c-0.051,0.189-0.034,0.549-0.034,0.703l1.046,0.36c0.309,0.12,0.497,0.497,0.497,0.874v5.503l-0.034,2.177
	c-0.017,0.549-0.291,1.286-0.823,1.44l-0.994,0.309c-0.017,0.223,0.017,0.497,0.068,0.754h4.817
	c0.069-0.189,0.086-0.634,0.086-0.789l-1.457-0.497c-0.377-0.137-0.411-0.24-0.411-0.651l-0.051-2.743v-4.063L48.4,71.295h0.12
	l7.097,10.475l1.303-0.377v-9.96c0-0.497,0.274-1.063,0.703-1.183L58.634,69.958z M41.053,72.718c0,1.594-0.943,2.417-2.829,2.417
	H36.63v-4.731l1.611,0.034c1.903,0.034,2.829,0.806,2.829,2.28H41.053z M45.648,81.015c-0.994-0.223-1.594-0.789-2.726-1.92
	c-0.823-0.84-1.92-2.572-2.332-3.24c1.457-0.446,2.229-1.834,2.229-3.223c0-2.486-1.731-3.343-4.149-3.343h-5.177
	c-0.086,0.223-0.103,0.531-0.086,0.669l1.286,0.446c0.223,0.086,0.343,0.291,0.394,0.497v5.829l-0.051,2.537
	c-0.069,0.48-0.291,0.943-0.686,1.08l-0.823,0.309c-0.017,0.223,0.017,0.497,0.052,0.754h4.732c0.068-0.189,0.068-0.737,0.068-0.892
	l-1.389-0.326c-0.206-0.034-0.291-0.171-0.291-0.463l-0.069-3.463h1.509c0.36,0,0.36,0,0.669-0.051
	c0.428,0.771,1.577,2.949,2.623,4.046c1.234,1.32,3.172,1.492,4.012,1.543L45.648,81.015z M32.609,70.026
	c0-0.223,0-0.48-0.052-0.737h-4.492c-0.051,0.189-0.017,0.549-0.017,0.703l0.737,0.223c0.789,0.223,0.96,0.754,0.96,1.166v5.383
	c0,2.743-1.286,3.686-3.154,3.686c-1.509,0-3.172-0.806-3.172-3.274v-6.343c0-0.326,0.103-0.48,0.446-0.549l0.977-0.206
	c0.017-0.223,0.017-0.531-0.034-0.789h-4.612c-0.051,0.189-0.069,0.549-0.069,0.703l1.08,0.36c0.309,0.103,0.497,0.514,0.497,0.891
	v6.052c0,3.497,2.451,4.337,4.8,4.337c2.143,0,4.783-1.217,4.783-4.8v-5.846c0-0.514,0.24-0.6,0.463-0.686L32.609,70.026z
	 M17.103,75.169c0,2.863-1.046,5.212-4.269,5.212c-3.034,0-4.097-2.16-4.097-4.903c0-2.829,1.114-5.177,4.217-5.177
	C15.92,70.3,17.103,72.306,17.103,75.169z M18.988,74.895c0-3.566-1.989-5.794-5.88-5.794c-3.72,0-6.257,2.829-6.257,6.669
	c0,3.703,2.177,5.846,5.932,5.846C16.657,81.615,18.988,78.632,18.988,74.895z M5.537,70.043c0.017-0.223-0.017-0.497-0.051-0.754
	H0.994c-0.069,0.189-0.086,0.549-0.086,0.703l0.754,0.257c0.549,0.189,0.823,0.806,0.823,1.269v7.389c0,2.4-0.686,3.6-2.486,4.697
	l0.583,1.012c2.074-1.046,3.48-2.16,3.48-4.697v-8.915c0-0.497,0.12-0.634,0.651-0.754L5.537,70.043z"/>
</svg>
