<svg xmlns="http://www.w3.org/2000/svg" viewBox="0 0 125 12"><path d="M66.83 4.7c0-2.48-2.12-3.36-4.1-3.36h-3.41v10.3h2.57V8.53h1.24a7.86 7.86 0 011.15 3.14h2.81a11.48 11.48 0 00-1.6-4 3.68 3.68 0 001.33-3zm-2.72.36a1.29 1.29 0 01-1.46 1.53 6.36 6.36 0 01-.73 0V3.3h.76c1.19 0 1.42.68 1.42 1.78zm-6.68 6.6v-2h-3.7V7.39h3.33v-2h-3.33v-2h3.64v-2h-6.1v8.45a2.11 2.11 0 00.52 1.37 1.9 1.9 0 001.42.53c1.86 0 3.91-.06 4.2-.07zM45.91 12a8.68 8.68 0 003.62-.84V6h-3.39v1.78h1.07v2.1a4.66 4.66 0 01-1.13.14c-1.36 0-1.89-1-1.89-3.57 0-2.25.78-3.34 2.39-3.34a5.48 5.48 0 012.15.66l.67-1.7a6.44 6.44 0 00-3.25-.93 4.2 4.2 0 00-3.43 1.33 6.11 6.11 0 00-1.12 4c0 4 1.17 5.48 4.3 5.48zm-8.66-.32H40V1.35h-2.32V8.1L34.6 1.35h-2.81v10.31h2.26v-6.5l3.19 6.5zM27 11.66h2.57V1.37H27v10.29zm-3.22-4a3.67 3.67 0 001.33-3c0-2.47-2.12-3.35-4.1-3.35H17.6v10.3h2.57V8.53h1.22a7.85 7.85 0 011.14 3.14h2.81a11.43 11.43 0 00-1.59-4zm-1.42-2.6A1.3 1.3 0 0120.9 6.6h-.73V3.3h.76c1.19 0 1.43.68 1.43 1.78v-.02zm-6.08-.4c0-2.14-1.36-3.32-3.82-3.32H9.05v10.3h2.55V8.53h.78a3.56 3.56 0 003.89-3.86zm-2.45.4a1.29 1.29 0 01-1.46 1.53 6.36 6.36 0 01-.73 0V3.3h.76c1.19 0 1.42.68 1.42 1.78zM3 3.33a1.13 1.13 0 011.088-1.17h.092a5.54 5.54 0 012.26.64L7.38.94A6.54 6.54 0 004 0C1.65 0 .26 1.25.26 3.33s1.63 2.89 2.93 3.54C4.14 7.34 5 7.74 5 8.51a1.25 1.25 0 01-1.5 1.1 5.75 5.75 0 01-2.56-.77l-.94 2a7.17 7.17 0 003.7 1c2.41 0 3.86-1.34 3.86-3.58S5.93 5.4 4.62 4.79C3.73 4.38 3 4 3 3.31v.02zm117.32 6.32V7.39h3.33v-2h-3.33v-2H124v-2h-6.1v8.45a2.1 2.1 0 00.52 1.37 1.9 1.9 0 001.42.53c1.87 0 3.92-.06 4.2-.07v-2h-3.68zm-5.55-1.94a3.69 3.69 0 001.33-3c0-2.48-2.12-3.37-4.1-3.37h-3.41v10.3h2.58V8.52h1.26a7.82 7.82 0 011.15 3.14h2.8a11.45 11.45 0 00-1.59-4zm-1.39-2.65a1.29 1.29 0 01-1.46 1.53 6.32 6.32 0 01-.73 0V3.3h.76c1.19 0 1.43.68 1.43 1.78v-.02zM106.68 8V1.35H104v6.87c0 1.06-.06 1.7-1.24 1.7s-1.32-.53-1.32-1.72V1.35H98.8v7c0 2.46 1.19 3.56 3.87 3.56s4-1.25 4-3.93zm-11.4-4.54h2V1.35h-7v2.11h2.32v8.21h2.67V3.46h.01zm-7.85 8.2h2.76L87.72 1.34h-4L81.2 11.66h2.62L84.2 10h2.87l.37 1.64zm-.67-3.59h-2.27l1.07-4.48h.11l1.08 4.46zm-10.08 3.59h3V.11h-2.43l.1 8.06L73.56.11h-3v11.56H73V3.84z" fill="#737373"/></svg>